<svg width="1434" height="590" viewBox="0 0 1434 590" fill="none" xmlns="http://www.w3.org/2000/svg">
<path d="M601.126 560V523.266H606.46L618.588 544.904H618.688L630.815 523.266H636.351V560H630.815V532.827H630.715L621.154 549.936H616.122L606.561 532.827H606.46V560H601.126ZM649.749 523.266V545.407C649.749 552.385 652.517 555.874 658.052 555.874C663.587 555.874 666.355 552.385 666.355 545.407V523.266H671.789V545.155C671.789 550.221 670.599 554.045 668.217 556.629C665.835 559.212 662.413 560.503 657.951 560.503C653.49 560.503 650.068 559.212 647.686 556.629C645.304 554.045 644.113 550.221 644.113 545.155V523.266H649.749ZM685.343 523.266V555.371H702.2V560H679.556V523.266H685.343ZM700.362 523.266H727.535V527.895H716.716V560H711.181V527.895H700.362V523.266ZM735.803 560V523.266H741.841V560H735.803ZM780.034 541.13C780.034 547.504 778.39 552.334 775.102 555.622C771.815 558.876 767.085 560.503 760.912 560.503C757.49 560.503 754.303 560.252 751.351 559.748V523.518C754.303 523.014 757.49 522.763 760.912 522.763C767.051 522.763 771.764 524.356 775.052 527.543C778.373 530.697 780.034 535.225 780.034 541.13ZM774.75 541.13C774.75 536.567 773.576 533.129 771.228 530.814C768.879 528.466 765.441 527.292 760.912 527.292C759.402 527.292 758.061 527.409 756.886 527.644V555.622C758.061 555.857 759.402 555.974 760.912 555.974C765.609 555.974 769.081 554.767 771.328 552.351C773.61 549.902 774.75 546.162 774.75 541.13ZM787.303 560V523.266H793.341V560H787.303ZM813.418 527.191C811.372 527.191 809.795 527.661 808.688 528.6C807.581 529.506 807.028 530.747 807.028 532.324C807.028 535.108 809.074 537.121 813.167 538.362C817.562 539.603 820.665 541.147 822.476 542.992C824.321 544.837 825.244 547.235 825.244 550.187C825.244 553.509 824.17 556.058 822.023 557.836C819.91 559.614 816.874 560.503 812.915 560.503C808.755 560.503 804.981 559.497 801.593 557.484L803.103 552.955C806.122 554.968 809.393 555.974 812.915 555.974C815.096 555.974 816.773 555.471 817.947 554.465C819.121 553.458 819.709 552.033 819.709 550.187C819.709 548.443 819.239 547.068 818.3 546.061C817.36 545.055 815.649 544.166 813.167 543.394C809.175 542.22 806.239 540.727 804.361 538.916C802.516 537.104 801.593 534.907 801.593 532.324C801.593 529.439 802.633 527.124 804.713 525.379C806.826 523.635 809.728 522.763 813.418 522.763C817.243 522.763 820.849 523.518 824.237 525.027L822.979 529.304C820.061 527.895 816.874 527.191 813.418 527.191ZM848.604 527.292C844.544 527.292 841.274 528.6 838.791 531.217C836.342 533.833 835.118 537.305 835.118 541.633C835.118 545.994 836.376 549.483 838.892 552.1C841.408 554.683 844.645 555.974 848.604 555.974C851.858 555.974 854.961 555.052 857.913 553.207L859.674 557.333C856.319 559.446 852.462 560.503 848.1 560.503C842.498 560.503 837.986 558.809 834.564 555.421C831.176 551.999 829.482 547.403 829.482 541.633C829.482 535.863 831.159 531.284 834.514 527.895C837.869 524.474 842.397 522.763 848.1 522.763C852.462 522.763 856.319 523.819 859.674 525.933L857.913 530.059C854.961 528.214 851.858 527.292 848.604 527.292ZM868.189 560V523.266H874.228V560H868.189ZM889.273 546.162V560H883.738V523.518C887.227 523.014 890.917 522.763 894.808 522.763C899.438 522.763 902.943 523.752 905.325 525.732C907.707 527.677 908.898 530.462 908.898 534.085C908.898 542.304 904.201 546.413 894.808 546.413C893.03 546.413 891.185 546.33 889.273 546.162ZM889.273 541.683C890.95 541.952 892.628 542.086 894.305 542.086C897.257 542.086 899.522 541.448 901.098 540.174C902.675 538.865 903.463 537.003 903.463 534.588C903.463 532.173 902.692 530.344 901.149 529.103C899.605 527.828 897.324 527.191 894.305 527.191C892.393 527.191 890.715 527.308 889.273 527.543V541.683ZM920.434 523.266V555.371H937.292V560H914.647V523.266H920.434ZM945.538 560V523.266H951.576V560H945.538ZM961.086 560V523.266H966.521L983.73 550.691H983.831V523.266H989.266V560H983.831L966.621 532.575H966.521V560H961.086ZM994.984 560L1008.07 523.266H1014.11L1027.19 560H1021.25L1018.08 550.238H1003.89L1000.72 560H994.984ZM1005.25 545.91H1016.72L1011.04 528.298H1010.94L1005.25 545.91ZM1038.47 544.904V560H1032.93V523.518C1036.08 523.014 1039.44 522.763 1042.99 522.763C1047.83 522.763 1051.47 523.652 1053.91 525.43C1056.36 527.208 1057.59 529.673 1057.59 532.827C1057.59 535.376 1056.93 537.557 1055.63 539.369C1054.32 541.18 1052.54 542.421 1050.29 543.092V543.193C1051.73 544.065 1053.08 546.061 1054.32 549.181L1058.59 560H1052.86L1048.68 549.181C1047.98 547.37 1047.19 546.212 1046.32 545.709C1045.48 545.172 1043.87 544.904 1041.48 544.904H1038.47ZM1038.47 540.576H1041.48C1048.6 540.576 1052.15 538.161 1052.15 533.33C1052.15 531.284 1051.38 529.757 1049.84 528.751C1048.33 527.711 1045.88 527.191 1042.49 527.191C1040.98 527.191 1039.64 527.308 1038.47 527.543V540.576ZM1066.04 523.266L1075.45 540.375H1075.55L1084.96 523.266H1091.25L1078.32 544.904V560H1072.48V544.904L1059.55 523.266H1066.04ZM1117.19 523.266V538.261H1134.3V523.266H1139.83V560H1134.3V542.589H1117.19V560H1111.65V523.266H1117.19ZM1145.55 560L1158.64 523.266H1164.67L1177.76 560H1171.82L1168.65 550.238H1154.46L1151.29 560H1145.55ZM1155.82 545.91H1167.29L1161.6 528.298H1161.5L1155.82 545.91ZM1198.83 527.292C1194.77 527.292 1191.5 528.6 1189.02 531.217C1186.57 533.833 1185.35 537.305 1185.35 541.633C1185.35 545.994 1186.61 549.483 1189.12 552.1C1191.64 554.683 1194.87 555.974 1198.83 555.974C1202.09 555.974 1205.19 555.052 1208.14 553.207L1209.9 557.333C1206.55 559.446 1202.69 560.503 1198.33 560.503C1192.73 560.503 1188.22 558.809 1184.79 555.421C1181.41 551.999 1179.71 547.403 1179.71 541.633C1179.71 535.863 1181.39 531.284 1184.74 527.895C1188.1 524.474 1192.63 522.763 1198.33 522.763C1202.69 522.763 1206.55 523.819 1209.9 525.933L1208.14 530.059C1205.19 528.214 1202.09 527.292 1198.83 527.292ZM1222.7 523.266V539.369H1222.8L1237.29 523.266H1243.83L1227.73 540.878L1244.33 560H1237.79L1222.8 542.388H1222.7V560H1217.16V523.266H1222.7ZM1248.06 560L1261.14 523.266H1267.18L1280.27 560H1274.33L1271.16 550.238H1256.97L1253.8 560H1248.06ZM1258.33 545.91H1269.8L1264.11 528.298H1264.01L1258.33 545.91ZM1279.2 523.266H1306.37V527.895H1295.55V560H1290.02V527.895H1279.2V523.266ZM1318.91 523.266V538.261H1336.02V523.266H1341.56V560H1336.02V542.589H1318.91V560H1313.38V523.266H1318.91ZM1352.46 527.895C1355.75 524.474 1360.14 522.763 1365.64 522.763C1371.15 522.763 1375.54 524.474 1378.83 527.895C1382.12 531.317 1383.76 535.896 1383.76 541.633C1383.76 547.37 1382.12 551.949 1378.83 555.371C1375.54 558.792 1371.15 560.503 1365.64 560.503C1360.14 560.503 1355.75 558.792 1352.46 555.371C1349.17 551.949 1347.53 547.37 1347.53 541.633C1347.53 535.896 1349.17 531.317 1352.46 527.895ZM1356.59 552.15C1358.87 554.7 1361.89 555.974 1365.64 555.974C1369.4 555.974 1372.42 554.7 1374.7 552.15C1376.98 549.567 1378.12 546.061 1378.12 541.633C1378.12 537.205 1376.98 533.716 1374.7 531.166C1372.42 528.583 1369.4 527.292 1365.64 527.292C1361.89 527.292 1358.87 528.583 1356.59 531.166C1354.31 533.716 1353.16 537.205 1353.16 541.633C1353.16 546.061 1354.31 549.567 1356.59 552.15ZM1389.75 560V523.266H1395.18L1412.39 550.691H1412.49V523.266H1417.92V560H1412.49L1395.28 532.575H1395.18V560H1389.75Z" fill="white"/>
<path d="M49.4108 460.086H99.4783H168.882H237.467L198.957 513.184H99.4783H0L49.4108 460.086Z" fill="white"/>
<path d="M806.061 483.691H858.798H997.067L957.98 430.252H858.798H810.815L759.6 430.593L806.061 483.691Z" fill="white"/>
<path d="M228.617 466.033H386.857L448.385 436.496H785.835" stroke="white" stroke-width="11.7996"/>
<path d="M987.503 478.008H1413" stroke="white" stroke-width="11.7996"/>
<path d="M243.501 476.312H271.221L243.501 512.636H213.868L243.501 476.312Z" fill="white"/>
<path d="M283.644 476.312H311.365L283.644 512.636H254.012L283.644 476.312Z" fill="white"/>
<path d="M321.884 476.312H349.605L321.884 512.636H292.252L321.884 476.312Z" fill="white"/>
<path d="M1078.1 430.582H1050.38L1078.1 466.91H1107.73L1078.1 430.582Z" fill="white"/>
<path d="M1037.95 430.582H1010.23L1037.95 466.91H1067.59L1037.95 430.582Z" fill="white"/>
<path d="M999.713 430.582H971.992L999.713 466.91H1029.35L999.713 430.582Z" fill="white"/>
<path d="M169.041 181L122.232 52.3648H137.596L175.294 155.63L212.812 52.3648H230.321L268.018 155.63L305.358 52.3648H321.08L274.271 181H261.586L221.567 71.1241L181.547 181H169.041ZM351.015 181C347.085 181 343.452 180.047 340.117 178.141C336.901 176.117 334.281 173.496 332.256 170.28C330.35 166.945 329.398 163.313 329.398 159.382V98.9951C329.398 95.0646 330.35 91.4914 332.256 88.2755C334.281 84.9405 336.901 82.3202 340.117 80.4144C343.452 78.3896 347.085 77.3772 351.015 77.3772H413.189C417.239 77.3772 420.871 78.3896 424.087 80.4144C427.422 82.3202 430.043 84.9405 431.948 88.2755C433.973 91.4914 434.986 95.0646 434.986 98.9951V136.514H344.048V159.382C344.048 161.288 344.703 162.955 346.013 164.385C347.442 165.695 349.11 166.35 351.015 166.35H434.986V181H351.015ZM344.048 121.864H420.157V98.9951C420.157 97.0894 419.442 95.4814 418.013 94.1713C416.703 92.742 415.095 92.0273 413.189 92.0273H351.015C349.11 92.0273 347.442 92.742 346.013 94.1713C344.703 95.4814 344.048 97.0894 344.048 98.9951V121.864ZM471.406 181C467.475 181 463.842 180.047 460.507 178.141C457.292 176.117 454.671 173.496 452.646 170.28C450.741 166.945 449.788 163.313 449.788 159.382V43.4318H464.438V159.382C464.438 161.288 465.093 162.955 466.403 164.385C467.833 165.695 469.5 166.35 471.406 166.35H488.914V181H471.406ZM525.139 181C521.209 181 517.576 180.047 514.241 178.141C511.025 176.117 508.405 173.496 506.38 170.28C504.474 166.945 503.521 163.313 503.521 159.382V98.9951C503.521 95.0646 504.474 91.4914 506.38 88.2755C508.405 84.9405 511.025 82.3202 514.241 80.4144C517.576 78.3896 521.209 77.3772 525.139 77.3772H608.752V92.0273H525.139C523.233 92.0273 521.566 92.742 520.137 94.1713C518.826 95.4814 518.171 97.0894 518.171 98.9951V159.382C518.171 161.288 518.826 162.955 520.137 164.385C521.566 165.695 523.233 166.35 525.139 166.35H609.109V181H525.139ZM649.364 181C645.433 181 641.8 180.047 638.465 178.141C635.249 176.117 632.629 173.496 630.604 170.28C628.699 166.945 627.746 163.313 627.746 159.382V98.9951C627.746 95.0646 628.699 91.4914 630.604 88.2755C632.629 84.9405 635.249 82.3202 638.465 80.4144C641.8 78.3896 645.433 77.3772 649.364 77.3772H711.537C715.587 77.3772 719.22 78.3896 722.436 80.4144C725.771 82.3202 728.391 84.9405 730.297 88.2755C732.321 91.4914 733.334 95.0646 733.334 98.9951V159.382C733.334 163.313 732.321 166.945 730.297 170.28C728.391 173.496 725.771 176.117 722.436 178.141C719.22 180.047 715.587 181 711.537 181H649.364ZM649.364 166.35H711.537C713.443 166.35 715.051 165.695 716.361 164.385C717.79 162.955 718.505 161.288 718.505 159.382V98.9951C718.505 97.0894 717.79 95.4814 716.361 94.1713C715.051 92.742 713.443 92.0273 711.537 92.0273H649.364C647.458 92.0273 645.79 92.742 644.361 94.1713C643.051 95.4814 642.396 97.0894 642.396 98.9951V159.382C642.396 161.288 643.051 162.955 644.361 164.385C645.79 165.695 647.458 166.35 649.364 166.35ZM751.983 181V77.3772H888.836C892.886 77.3772 896.519 78.3896 899.735 80.4144C903.07 82.3202 905.69 84.9405 907.596 88.2755C909.501 91.4914 910.454 95.0646 910.454 98.9951V181H895.983V98.9951C895.983 97.0894 895.268 95.4814 893.839 94.1713C892.41 92.742 890.742 92.0273 888.836 92.0273H845.779C843.874 92.0273 842.206 92.742 840.777 94.1713C839.467 95.4814 838.812 97.0894 838.812 98.9951V181H823.983V98.9951C823.983 97.0894 823.268 95.4814 821.839 94.1713C820.529 92.742 818.921 92.0273 817.015 92.0273H773.779C771.874 92.0273 770.206 92.742 768.777 94.1713C767.467 95.4814 766.812 97.0894 766.812 98.9951V181H751.983ZM947.712 181C943.781 181 940.148 180.047 936.813 178.141C933.598 176.117 930.977 173.496 928.952 170.28C927.047 166.945 926.094 163.313 926.094 159.382V98.9951C926.094 95.0646 927.047 91.4914 928.952 88.2755C930.977 84.9405 933.598 82.3202 936.813 80.4144C940.148 78.3896 943.781 77.3772 947.712 77.3772H1009.89C1013.94 77.3772 1017.57 78.3896 1020.78 80.4144C1024.12 82.3202 1026.74 84.9405 1028.64 88.2755C1030.67 91.4914 1031.68 95.0646 1031.68 98.9951V136.514H940.744V159.382C940.744 161.288 941.399 162.955 942.709 164.385C944.139 165.695 945.806 166.35 947.712 166.35H1031.68V181H947.712ZM940.744 121.864H1016.85V98.9951C1016.85 97.0894 1016.14 95.4814 1014.71 94.1713C1013.4 92.742 1011.79 92.0273 1009.89 92.0273H947.712C945.806 92.0273 944.139 92.742 942.709 94.1713C941.399 95.4814 940.744 97.0894 940.744 98.9951V121.864ZM1120.45 181C1116.4 181 1112.71 180.047 1109.37 178.141C1106.16 176.117 1103.59 173.496 1101.69 170.28C1099.78 166.945 1098.83 163.313 1098.83 159.382V43.4318H1113.48V77.3772H1158.32V92.0273H1113.48V159.382C1113.48 161.288 1114.14 162.955 1115.45 164.385C1116.87 165.695 1118.54 166.35 1120.45 166.35H1158.32V181H1120.45ZM1193.37 181C1189.44 181 1185.81 180.047 1182.47 178.141C1179.26 176.117 1176.63 173.496 1174.61 170.28C1172.7 166.945 1171.75 163.313 1171.75 159.382V98.9951C1171.75 95.0646 1172.7 91.4914 1174.61 88.2755C1176.63 84.9405 1179.26 82.3202 1182.47 80.4144C1185.81 78.3896 1189.44 77.3772 1193.37 77.3772H1255.54C1259.59 77.3772 1263.23 78.3896 1266.44 80.4144C1269.78 82.3202 1272.4 84.9405 1274.3 88.2755C1276.33 91.4914 1277.34 95.0646 1277.34 98.9951V159.382C1277.34 163.313 1276.33 166.945 1274.3 170.28C1272.4 173.496 1269.78 176.117 1266.44 178.141C1263.23 180.047 1259.59 181 1255.54 181H1193.37ZM1193.37 166.35H1255.54C1257.45 166.35 1259.06 165.695 1260.37 164.385C1261.8 162.955 1262.51 161.288 1262.51 159.382V98.9951C1262.51 97.0894 1261.8 95.4814 1260.37 94.1713C1259.06 92.742 1257.45 92.0273 1255.54 92.0273H1193.37C1191.46 92.0273 1189.8 92.742 1188.37 94.1713C1187.06 95.4814 1186.4 97.0894 1186.4 98.9951V159.382C1186.4 161.288 1187.06 162.955 1188.37 164.385C1189.8 165.695 1191.46 166.35 1193.37 166.35Z" fill="white"/>
<path d="M36.0893 410.543C31.325 410.543 26.9181 409.352 22.8685 406.97C18.8188 404.588 15.603 401.372 13.2208 397.322C10.8387 393.273 9.64764 388.866 9.64764 384.101V372.131H37.3399V382.672H110.233V360.161H36.0893C31.325 360.161 26.9181 358.97 22.8685 356.588C18.8188 354.206 15.603 351.049 13.2208 347.119C10.8387 343.069 9.64764 338.603 9.64764 333.719V308.349C9.64764 303.466 10.8387 299.059 13.2208 295.129C15.603 291.079 18.8188 287.863 22.8685 285.481C26.9181 283.099 31.325 281.908 36.0893 281.908H111.841C116.605 281.908 120.953 283.099 124.883 285.481C128.933 287.863 132.149 291.079 134.531 295.129C137.032 299.059 138.283 303.466 138.283 308.349V320.32H110.233V309.779H37.3399V332.29H111.841C116.605 332.29 120.953 333.481 124.883 335.863C128.933 338.245 132.149 341.461 134.531 345.511C137.032 349.441 138.283 353.848 138.283 358.732V384.101C138.283 388.866 137.032 393.273 134.531 397.322C132.149 401.372 128.933 404.588 124.883 406.97C120.953 409.352 116.605 410.543 111.841 410.543H36.0893ZM356.77 410.543C352.006 410.543 347.599 409.352 343.549 406.97C339.499 404.588 336.284 401.372 333.901 397.322C331.519 393.273 330.328 388.866 330.328 384.101V281.908H358.021V382.672H430.914V281.908H458.963V384.101C458.963 388.866 457.713 393.273 455.212 397.322C452.829 401.372 449.614 404.588 445.564 406.97C441.633 409.352 437.286 410.543 432.522 410.543H356.77ZM480.425 410.543V281.908H495.075V410.543H480.425ZM587.597 410.543L513.096 281.908H530.069L595.994 396.429L661.741 281.908H678.714L604.391 410.543H587.597ZM689.759 410.543V303.347C689.759 299.416 690.711 295.843 692.617 292.627C694.523 289.292 697.084 286.672 700.3 284.766C703.635 282.861 707.267 281.908 711.198 281.908H796.955C800.885 281.908 804.458 282.861 807.674 284.766C811.009 286.672 813.629 289.292 815.535 292.627C817.441 295.843 818.394 299.416 818.394 303.347V410.543H803.922V363.555H704.23V410.543H689.759ZM704.23 349.084H803.922V303.347C803.922 301.441 803.208 299.833 801.778 298.523C800.468 297.094 798.86 296.379 796.955 296.379H711.198C709.292 296.379 707.625 297.094 706.195 298.523C704.885 299.833 704.23 301.441 704.23 303.347V349.084ZM889.489 410.543V296.379H832.318V281.908H960.953V296.379H903.961V410.543H889.489ZM974.494 410.543V281.908H988.965V338.9H1091.69V281.908H1106.34V410.543H1091.69V353.55H988.965V410.543H974.494ZM1147.36 410.543C1143.43 410.543 1139.8 409.59 1136.46 407.684C1133.25 405.779 1130.69 403.218 1128.78 400.002C1126.88 396.667 1125.92 393.034 1125.92 389.104V303.347C1125.92 299.416 1126.88 295.843 1128.78 292.627C1130.69 289.292 1133.25 286.672 1136.46 284.766C1139.8 282.861 1143.43 281.908 1147.36 281.908H1233.12C1237.05 281.908 1240.62 282.861 1243.84 284.766C1247.17 286.672 1249.79 289.292 1251.7 292.627C1253.61 295.843 1254.56 299.416 1254.56 303.347V389.104C1254.56 393.034 1253.61 396.667 1251.7 400.002C1249.79 403.218 1247.17 405.779 1243.84 407.684C1240.62 409.59 1237.05 410.543 1233.12 410.543H1147.36ZM1147.36 396.072H1233.12C1235.02 396.072 1236.63 395.416 1237.94 394.106C1239.37 392.677 1240.09 391.009 1240.09 389.104V303.347C1240.09 301.441 1239.37 299.833 1237.94 298.523C1236.63 297.094 1235.02 296.379 1233.12 296.379H1147.36C1145.46 296.379 1143.79 297.094 1142.36 298.523C1141.05 299.833 1140.39 301.441 1140.39 303.347V389.104C1140.39 391.009 1141.05 392.677 1142.36 394.106C1143.79 395.416 1145.46 396.072 1147.36 396.072ZM1274.23 410.543V281.908H1294.06L1388.4 394.106V281.908H1402.87V410.543H1383.04L1288.7 298.345V410.543H1274.23Z" fill="white"/>
<path d="M195.62 277.543V270.405H205.817V265.307H212.955V271.425H210.916V267.346H207.857V272.445H197.66V275.504H211.935V277.543H195.62ZM216.014 271.425V265.307H227.23V267.346H218.053V271.425H216.014ZM195.62 308.133V287.74H190.522V280.602H212.955V287.74H202.758V295.897H205.817V290.799H212.955V295.897H216.014V290.799H226.211V272.445H223.152V277.543H218.053V280.602H223.152V287.74H217.034V285.7H221.112V282.641H216.014V275.504H221.112V270.405H228.25V292.838H218.053V297.936H210.916V292.838H207.857V297.936H200.719V285.7H210.916V282.641H192.561V285.7H197.66V306.094H201.738V308.133H195.62ZM185.424 291.818V275.504H191.542V277.543H187.463V291.818H185.424ZM190.522 322.408V316.29H195.62V313.231H185.424V303.035H175.227V285.7H182.365V295.897H192.561V307.113H190.522V297.936H180.325V287.74H177.266V300.995H187.463V311.192H197.66V318.33H192.561V322.408H190.522ZM205.817 307.113V303.035H201.738V300.995H207.857V307.113H205.817ZM200.719 373.392V354.018H195.62V348.92H192.561V354.018H185.424V348.92H177.266V364.215H170.129V359.117H165.03V354.018H154.834V346.881H159.932V341.782H165.03V338.723H154.834V331.586H165.03V326.487H170.129V321.389H175.227V318.33H170.129V306.094H182.365V321.389H187.463V328.527H182.365V341.782H185.424V331.586H200.719V328.527H195.62V321.389H200.719V311.192H207.857V317.31H205.817V313.231H202.758V323.428H197.66V326.487H202.758V333.625H187.463V343.822H180.325V326.487H185.424V323.428H180.325V308.133H172.168V316.29H177.266V323.428H172.168V328.527H167.07V333.625H156.873V336.684H167.07V343.822H161.971V348.92H156.873V351.979H167.07V357.077H172.168V362.176H175.227V346.881H187.463V351.979H190.522V346.881H197.66V351.979H202.758V373.392H200.719ZM170.129 338.723V332.605H172.168V336.684H175.227V327.507H177.266V338.723H170.129ZM190.522 342.802V336.684H197.66V342.802H195.62V338.723H192.561V342.802H190.522ZM171.148 343.822V341.782H176.247V343.822H171.148ZM166.05 348.92V346.881H171.148V348.92H166.05ZM175.227 389.707V382.569H185.424V379.51H175.227V372.372H195.62V359.117H182.365V367.274H190.522V364.215H186.443V362.176H192.561V369.313H180.325V357.077H197.66V374.412H177.266V377.471H187.463V384.608H177.266V387.667H181.345V389.707H175.227ZM170.129 378.49V367.274H176.247V369.313H172.168V378.49H170.129ZM205.817 373.392V368.294H207.857V373.392H205.817ZM186.443 389.707V387.667H200.719V377.471H206.837V379.51H202.758V389.707H186.443ZM190.522 384.608V378.49H192.561V382.569H195.62V378.49H197.66V384.608H190.522ZM206.837 384.608V382.569H211.935V384.608H206.837ZM216.014 410.1V397.864H221.112V394.805H216.014V389.707H207.857V394.805H197.66V399.903H190.522V394.805H187.463V402.962H196.64V405.002H185.424V392.766H192.561V397.864H195.62V392.766H205.817V387.667H218.053V392.766H223.152V399.903H218.053V408.061H226.211V405.002H222.132V402.962H228.25V410.1H216.014ZM180.325 403.982V394.805H176.247V392.766H182.365V403.982H180.325ZM206.837 405.002V402.962H210.916V393.785H212.955V405.002H206.837ZM226.211 398.884V393.785H228.25V398.884H226.211ZM200.719 403.982V397.864H206.837V399.903H202.758V403.982H200.719ZM196.64 415.198V413.159H200.719V410.1H186.443V408.061H202.758V415.198H196.64ZM205.817 419.277V408.061H212.955V419.277H210.916V410.1H207.857V419.277H205.817ZM217.034 420.297V418.257H221.112V413.159H228.25V419.277H226.211V415.198H223.152V420.297H217.034ZM265.745 317.31V308.133H260.647V297.936H250.45V290.799H255.549V285.7H260.647V280.602H265.745V277.543H257.588V282.641H245.352V277.543H240.254V270.405H245.352V267.346H241.273V265.307H247.391V272.445H242.293V275.504H247.391V280.602H255.549V275.504H267.785V282.641H262.686V287.74H257.588V292.838H252.49V295.897H262.686V306.094H267.785V317.31H265.745ZM250.45 272.445V266.327H252.49V270.405H255.549V265.307H267.785V271.425H265.745V267.346H257.588V272.445H250.45ZM270.844 303.035V292.838H267.785V302.015H265.745V290.799H272.883V300.995H275.942V295.897H286.139V292.838H281.04V285.7H286.139V282.641H281.04V277.543H277.981V287.74H270.844V270.405H276.962V272.445H272.883V285.7H275.942V275.504H283.08V280.602H288.178V287.74H283.08V290.799H288.178V297.936H277.981V303.035H270.844ZM240.254 287.74V281.622H242.293V285.7H251.47V287.74H240.254ZM291.237 296.917V286.72H293.276V296.917H291.237ZM241.273 292.838V290.799H246.372V292.838H241.273ZM276.962 328.527V326.487H291.237V316.29H296.335V303.035H293.276V308.133H286.139V303.035H283.08V308.133H277.981V311.192H292.257V313.231H275.942V306.094H281.04V300.995H288.178V306.094H291.237V300.995H298.375V318.33H293.276V328.527H276.962ZM270.844 312.212V307.113H272.883V312.212H270.844ZM265.745 328.527V322.408H267.785V326.487H270.844V316.29H277.981V321.389H282.06V323.428H275.942V318.33H272.883V328.527H265.745ZM282.06 318.33V316.29H287.158V318.33H282.06ZM297.355 328.527V326.487H301.434V323.428H297.355V321.389H303.473V328.527H297.355ZM301.434 338.723V333.625H266.765V331.586H303.473V336.684H311.63V333.625H307.552V331.586H313.67V338.723H301.434ZM286.139 394.805V369.313H281.04V359.117H272.883V372.372H275.942V363.195H277.981V374.412H270.844V357.077H283.08V367.274H288.178V392.766H291.237V382.569H296.335V379.51H291.237V372.372H296.335V364.215H286.139V357.077H291.237V351.979H311.63V343.822H296.335V338.723H293.276V343.822H283.08V346.881H307.552V348.92H281.04V341.782H291.237V336.684H298.375V341.782H313.67V354.018H293.276V359.117H288.178V362.176H298.375V374.412H293.276V377.471H298.375V384.608H293.276V394.805H286.139ZM282.06 338.723V336.684H287.158V338.723H282.06ZM275.942 347.9V338.723H271.863V336.684H277.981V347.9H275.942ZM265.745 373.392V351.979H270.844V347.9H272.883V354.018H267.785V373.392H265.745ZM282.06 354.018V351.979H287.158V354.018H282.06ZM297.355 359.117V357.077H302.453V359.117H297.355ZM270.844 384.608V379.51H267.785V383.589H265.745V377.471H272.883V382.569H281.04V373.392H283.08V384.608H270.844ZM251.47 394.805V392.766H260.647V378.49H262.686V394.805H251.47ZM251.47 389.707V387.667H256.568V389.707H251.47ZM275.942 410.1V402.962H281.04V399.903H275.942V394.805H270.844V389.707H266.765V387.667H272.883V392.766H277.981V397.864H283.08V405.002H277.981V408.061H282.06V410.1H275.942ZM281.04 393.785V388.687H283.08V393.785H281.04ZM241.273 394.805V392.766H246.372V394.805H241.273ZM250.45 420.297V413.159H255.549V408.061H266.765V410.1H257.588V415.198H252.49V418.257H260.647V413.159H270.844V399.903H267.785V405.002H255.549V399.903H252.49V405.002H245.352V399.903H242.293V413.159H245.352V409.08H247.391V415.198H240.254V397.864H247.391V402.962H250.45V397.864H257.588V402.962H265.745V397.864H272.883V415.198H262.686V420.297H250.45ZM286.139 403.982V397.864H292.257V399.903H288.178V403.982H286.139ZM241.273 420.297V418.257H246.372V420.297H241.273Z" fill="#68F9F6"/>
</svg>
