<svg width="1284" height="486" viewBox="0 0 1284 486" fill="none" xmlns="http://www.w3.org/2000/svg">
<mask id="path-1-outside-1_619_212" maskUnits="userSpaceOnUse" x="536.552" y="425.059" width="735" height="37" fill="black">
<rect fill="white" x="536.552" y="425.059" width="735" height="37"/>
<path d="M538.247 460.059V427.167H543.023L553.882 446.542H553.972L564.831 427.167H569.787V460.059H564.831V435.728H564.741L556.18 451.047H551.674L543.113 435.728H543.023V460.059H538.247ZM581.784 427.167V446.992C581.784 453.24 584.262 456.364 589.218 456.364C594.174 456.364 596.653 453.24 596.653 446.992V427.167H601.519V446.767C601.519 451.303 600.452 454.727 598.32 457.04C596.187 459.353 593.123 460.509 589.128 460.509C585.133 460.509 582.069 459.353 579.936 457.04C577.804 454.727 576.737 451.303 576.737 446.767V427.167H581.784ZM613.654 427.167V455.913H628.748V460.059H608.473V427.167H613.654ZM627.103 427.167H651.433V431.312H641.746V460.059H636.79V431.312H627.103V427.167ZM658.836 460.059V427.167H664.243V460.059H658.836ZM698.441 443.162C698.441 448.869 696.969 453.195 694.025 456.139C691.081 459.052 686.846 460.509 681.319 460.509C678.255 460.509 675.401 460.284 672.758 459.833V427.392C675.401 426.942 678.255 426.716 681.319 426.716C686.816 426.716 691.036 428.143 693.98 430.997C696.954 433.82 698.441 437.876 698.441 443.162ZM693.71 443.162C693.71 439.077 692.658 435.998 690.556 433.926C688.453 431.823 685.374 430.772 681.319 430.772C679.967 430.772 678.766 430.877 677.714 431.087V456.139C678.766 456.349 679.967 456.454 681.319 456.454C685.524 456.454 688.633 455.373 690.646 453.21C692.688 451.017 693.71 447.668 693.71 443.162ZM704.949 460.059V427.167H710.356V460.059H704.949ZM728.333 430.681C726.501 430.681 725.089 431.102 724.098 431.943C723.106 432.754 722.611 433.865 722.611 435.277C722.611 437.77 724.443 439.573 728.108 440.684C732.043 441.796 734.821 443.177 736.443 444.829C738.095 446.481 738.921 448.629 738.921 451.272C738.921 454.246 737.96 456.529 736.038 458.121C734.145 459.713 731.427 460.509 727.882 460.509C724.158 460.509 720.778 459.608 717.745 457.806L719.096 453.751C721.8 455.553 724.728 456.454 727.882 456.454C729.835 456.454 731.337 456.003 732.388 455.102C733.439 454.201 733.965 452.925 733.965 451.272C733.965 449.711 733.545 448.479 732.704 447.578C731.862 446.677 730.331 445.881 728.108 445.19C724.533 444.138 721.905 442.802 720.223 441.18C718.571 439.558 717.745 437.59 717.745 435.277C717.745 432.694 718.676 430.621 720.538 429.059C722.431 427.497 725.029 426.716 728.333 426.716C731.757 426.716 734.986 427.392 738.02 428.744L736.894 432.574C734.281 431.312 731.427 430.681 728.333 430.681ZM759.838 430.772C756.203 430.772 753.274 431.943 751.052 434.286C748.859 436.629 747.762 439.738 747.762 443.613C747.762 447.518 748.889 450.642 751.142 452.985C753.395 455.298 756.293 456.454 759.838 456.454C762.751 456.454 765.53 455.628 768.173 453.976L769.75 457.671C766.746 459.563 763.292 460.509 759.387 460.509C754.371 460.509 750.331 458.992 747.267 455.958C744.233 452.895 742.716 448.779 742.716 443.613C742.716 438.446 744.218 434.346 747.222 431.312C750.226 428.248 754.281 426.716 759.387 426.716C763.292 426.716 766.746 427.663 769.75 429.555L768.173 433.25C765.53 431.598 762.751 430.772 759.838 430.772ZM777.375 460.059V427.167H782.782V460.059H777.375ZM796.253 447.668V460.059H791.297V427.392C794.421 426.942 797.725 426.716 801.209 426.716C805.354 426.716 808.493 427.603 810.626 429.375C812.759 431.117 813.825 433.61 813.825 436.854C813.825 444.214 809.62 447.893 801.209 447.893C799.617 447.893 797.965 447.818 796.253 447.668ZM796.253 443.658C797.755 443.898 799.257 444.018 800.759 444.018C803.402 444.018 805.43 443.448 806.841 442.306C808.253 441.135 808.959 439.468 808.959 437.305C808.959 435.142 808.268 433.505 806.886 432.394C805.505 431.252 803.462 430.681 800.759 430.681C799.046 430.681 797.545 430.787 796.253 430.997V443.658ZM824.155 427.167V455.913H839.249V460.059H818.973V427.167H824.155ZM846.632 460.059V427.167H852.039V460.059H846.632ZM860.554 460.059V427.167H865.42L880.83 451.723H880.92V427.167H885.786V460.059H880.92L865.51 435.503H865.42V460.059H860.554ZM890.906 460.059L902.621 427.167H908.028L919.742 460.059H914.426L911.587 451.318H898.881L896.042 460.059H890.906ZM900.098 447.443H910.371L905.279 431.673H905.189L900.098 447.443ZM929.84 446.542V460.059H924.884V427.392C927.707 426.942 930.711 426.716 933.895 426.716C938.22 426.716 941.48 427.512 943.672 429.104C945.865 430.696 946.961 432.904 946.961 435.728C946.961 438.011 946.376 439.963 945.204 441.585C944.033 443.207 942.441 444.319 940.428 444.919V445.01C941.72 445.791 942.921 447.578 944.033 450.371L947.863 460.059H942.726L938.986 450.371C938.356 448.749 937.65 447.713 936.869 447.262C936.118 446.782 934.676 446.542 932.543 446.542H929.84ZM929.84 442.667H932.543C938.911 442.667 942.095 440.504 942.095 436.178C942.095 434.346 941.404 432.979 940.023 432.078C938.671 431.147 936.478 430.681 933.444 430.681C932.093 430.681 930.891 430.787 929.84 430.997V442.667ZM954.53 427.167L962.956 442.486H963.046L971.472 427.167H977.104L965.524 446.542V460.059H960.298V446.542L948.718 427.167H954.53ZM1000.33 427.167V440.594H1015.65V427.167H1020.6V460.059H1015.65V444.469H1000.33V460.059H995.373V427.167H1000.33ZM1025.72 460.059L1037.44 427.167H1042.85L1054.56 460.059H1049.24L1046.41 451.318H1033.7L1030.86 460.059H1025.72ZM1034.92 447.443H1045.19L1040.1 431.673H1040.01L1034.92 447.443ZM1073.43 430.772C1069.8 430.772 1066.87 431.943 1064.65 434.286C1062.45 436.629 1061.36 439.738 1061.36 443.613C1061.36 447.518 1062.48 450.642 1064.74 452.985C1066.99 455.298 1069.89 456.454 1073.43 456.454C1076.35 456.454 1079.12 455.628 1081.77 453.976L1083.35 457.671C1080.34 459.563 1076.89 460.509 1072.98 460.509C1067.97 460.509 1063.93 458.992 1060.86 455.958C1057.83 452.895 1056.31 448.779 1056.31 443.613C1056.31 438.446 1057.81 434.346 1060.82 431.312C1063.82 428.248 1067.88 426.716 1072.98 426.716C1076.89 426.716 1080.34 427.663 1083.35 429.555L1081.77 433.25C1079.12 431.598 1076.35 430.772 1073.43 430.772ZM1094.8 427.167V441.585H1094.89L1107.87 427.167H1113.72L1099.31 442.937L1114.17 460.059H1108.32L1094.89 444.289H1094.8V460.059H1089.84V427.167H1094.8ZM1117.51 460.059L1129.23 427.167H1134.63L1146.35 460.059H1141.03L1138.19 451.318H1125.49L1122.65 460.059H1117.51ZM1126.7 447.443H1136.98L1131.88 431.673H1131.79L1126.7 447.443ZM1145.39 427.167H1169.72V431.312H1160.03V460.059H1155.08V431.312H1145.39V427.167ZM1180.95 427.167V440.594H1196.27V427.167H1201.23V460.059H1196.27V444.469H1180.95V460.059H1176V427.167H1180.95ZM1210.99 431.312C1213.93 428.248 1217.87 426.716 1222.79 426.716C1227.72 426.716 1231.66 428.248 1234.6 431.312C1237.54 434.376 1239.02 438.476 1239.02 443.613C1239.02 448.749 1237.54 452.849 1234.6 455.913C1231.66 458.977 1227.72 460.509 1222.79 460.509C1217.87 460.509 1213.93 458.977 1210.99 455.913C1208.05 452.849 1206.57 448.749 1206.57 443.613C1206.57 438.476 1208.05 434.376 1210.99 431.312ZM1214.68 453.03C1216.73 455.313 1219.43 456.454 1222.79 456.454C1226.16 456.454 1228.86 455.313 1230.9 453.03C1232.95 450.717 1233.97 447.578 1233.97 443.613C1233.97 439.648 1232.95 436.524 1230.9 434.241C1228.86 431.928 1226.16 430.772 1222.79 430.772C1219.43 430.772 1216.73 431.928 1214.68 434.241C1212.64 436.524 1211.62 439.648 1211.62 443.613C1211.62 447.578 1212.64 450.717 1214.68 453.03ZM1244.37 460.059V427.167H1249.24L1264.65 451.723H1264.74V427.167H1269.61V460.059H1264.74L1249.33 435.503H1249.24V460.059H1244.37Z"/>
</mask>
<path d="M538.247 460.059V427.167H543.023L553.882 446.542H553.972L564.831 427.167H569.787V460.059H564.831V435.728H564.741L556.18 451.047H551.674L543.113 435.728H543.023V460.059H538.247ZM581.784 427.167V446.992C581.784 453.24 584.262 456.364 589.218 456.364C594.174 456.364 596.653 453.24 596.653 446.992V427.167H601.519V446.767C601.519 451.303 600.452 454.727 598.32 457.04C596.187 459.353 593.123 460.509 589.128 460.509C585.133 460.509 582.069 459.353 579.936 457.04C577.804 454.727 576.737 451.303 576.737 446.767V427.167H581.784ZM613.654 427.167V455.913H628.748V460.059H608.473V427.167H613.654ZM627.103 427.167H651.433V431.312H641.746V460.059H636.79V431.312H627.103V427.167ZM658.836 460.059V427.167H664.243V460.059H658.836ZM698.441 443.162C698.441 448.869 696.969 453.195 694.025 456.139C691.081 459.052 686.846 460.509 681.319 460.509C678.255 460.509 675.401 460.284 672.758 459.833V427.392C675.401 426.942 678.255 426.716 681.319 426.716C686.816 426.716 691.036 428.143 693.98 430.997C696.954 433.82 698.441 437.876 698.441 443.162ZM693.71 443.162C693.71 439.077 692.658 435.998 690.556 433.926C688.453 431.823 685.374 430.772 681.319 430.772C679.967 430.772 678.766 430.877 677.714 431.087V456.139C678.766 456.349 679.967 456.454 681.319 456.454C685.524 456.454 688.633 455.373 690.646 453.21C692.688 451.017 693.71 447.668 693.71 443.162ZM704.949 460.059V427.167H710.356V460.059H704.949ZM728.333 430.681C726.501 430.681 725.089 431.102 724.098 431.943C723.106 432.754 722.611 433.865 722.611 435.277C722.611 437.77 724.443 439.573 728.108 440.684C732.043 441.796 734.821 443.177 736.443 444.829C738.095 446.481 738.921 448.629 738.921 451.272C738.921 454.246 737.96 456.529 736.038 458.121C734.145 459.713 731.427 460.509 727.882 460.509C724.158 460.509 720.778 459.608 717.745 457.806L719.096 453.751C721.8 455.553 724.728 456.454 727.882 456.454C729.835 456.454 731.337 456.003 732.388 455.102C733.439 454.201 733.965 452.925 733.965 451.272C733.965 449.711 733.545 448.479 732.704 447.578C731.862 446.677 730.331 445.881 728.108 445.19C724.533 444.138 721.905 442.802 720.223 441.18C718.571 439.558 717.745 437.59 717.745 435.277C717.745 432.694 718.676 430.621 720.538 429.059C722.431 427.497 725.029 426.716 728.333 426.716C731.757 426.716 734.986 427.392 738.02 428.744L736.894 432.574C734.281 431.312 731.427 430.681 728.333 430.681ZM759.838 430.772C756.203 430.772 753.274 431.943 751.052 434.286C748.859 436.629 747.762 439.738 747.762 443.613C747.762 447.518 748.889 450.642 751.142 452.985C753.395 455.298 756.293 456.454 759.838 456.454C762.751 456.454 765.53 455.628 768.173 453.976L769.75 457.671C766.746 459.563 763.292 460.509 759.387 460.509C754.371 460.509 750.331 458.992 747.267 455.958C744.233 452.895 742.716 448.779 742.716 443.613C742.716 438.446 744.218 434.346 747.222 431.312C750.226 428.248 754.281 426.716 759.387 426.716C763.292 426.716 766.746 427.663 769.75 429.555L768.173 433.25C765.53 431.598 762.751 430.772 759.838 430.772ZM777.375 460.059V427.167H782.782V460.059H777.375ZM796.253 447.668V460.059H791.297V427.392C794.421 426.942 797.725 426.716 801.209 426.716C805.354 426.716 808.493 427.603 810.626 429.375C812.759 431.117 813.825 433.61 813.825 436.854C813.825 444.214 809.62 447.893 801.209 447.893C799.617 447.893 797.965 447.818 796.253 447.668ZM796.253 443.658C797.755 443.898 799.257 444.018 800.759 444.018C803.402 444.018 805.43 443.448 806.841 442.306C808.253 441.135 808.959 439.468 808.959 437.305C808.959 435.142 808.268 433.505 806.886 432.394C805.505 431.252 803.462 430.681 800.759 430.681C799.046 430.681 797.545 430.787 796.253 430.997V443.658ZM824.155 427.167V455.913H839.249V460.059H818.973V427.167H824.155ZM846.632 460.059V427.167H852.039V460.059H846.632ZM860.554 460.059V427.167H865.42L880.83 451.723H880.92V427.167H885.786V460.059H880.92L865.51 435.503H865.42V460.059H860.554ZM890.906 460.059L902.621 427.167H908.028L919.742 460.059H914.426L911.587 451.318H898.881L896.042 460.059H890.906ZM900.098 447.443H910.371L905.279 431.673H905.189L900.098 447.443ZM929.84 446.542V460.059H924.884V427.392C927.707 426.942 930.711 426.716 933.895 426.716C938.22 426.716 941.48 427.512 943.672 429.104C945.865 430.696 946.961 432.904 946.961 435.728C946.961 438.011 946.376 439.963 945.204 441.585C944.033 443.207 942.441 444.319 940.428 444.919V445.01C941.72 445.791 942.921 447.578 944.033 450.371L947.863 460.059H942.726L938.986 450.371C938.356 448.749 937.65 447.713 936.869 447.262C936.118 446.782 934.676 446.542 932.543 446.542H929.84ZM929.84 442.667H932.543C938.911 442.667 942.095 440.504 942.095 436.178C942.095 434.346 941.404 432.979 940.023 432.078C938.671 431.147 936.478 430.681 933.444 430.681C932.093 430.681 930.891 430.787 929.84 430.997V442.667ZM954.53 427.167L962.956 442.486H963.046L971.472 427.167H977.104L965.524 446.542V460.059H960.298V446.542L948.718 427.167H954.53ZM1000.33 427.167V440.594H1015.65V427.167H1020.6V460.059H1015.65V444.469H1000.33V460.059H995.373V427.167H1000.33ZM1025.72 460.059L1037.44 427.167H1042.85L1054.56 460.059H1049.24L1046.41 451.318H1033.7L1030.86 460.059H1025.72ZM1034.92 447.443H1045.19L1040.1 431.673H1040.01L1034.92 447.443ZM1073.43 430.772C1069.8 430.772 1066.87 431.943 1064.65 434.286C1062.45 436.629 1061.36 439.738 1061.36 443.613C1061.36 447.518 1062.48 450.642 1064.74 452.985C1066.99 455.298 1069.89 456.454 1073.43 456.454C1076.35 456.454 1079.12 455.628 1081.77 453.976L1083.35 457.671C1080.34 459.563 1076.89 460.509 1072.98 460.509C1067.97 460.509 1063.93 458.992 1060.86 455.958C1057.83 452.895 1056.31 448.779 1056.31 443.613C1056.31 438.446 1057.81 434.346 1060.82 431.312C1063.82 428.248 1067.88 426.716 1072.98 426.716C1076.89 426.716 1080.34 427.663 1083.35 429.555L1081.77 433.25C1079.12 431.598 1076.35 430.772 1073.43 430.772ZM1094.8 427.167V441.585H1094.89L1107.87 427.167H1113.72L1099.31 442.937L1114.17 460.059H1108.32L1094.89 444.289H1094.8V460.059H1089.84V427.167H1094.8ZM1117.51 460.059L1129.23 427.167H1134.63L1146.35 460.059H1141.03L1138.19 451.318H1125.49L1122.65 460.059H1117.51ZM1126.7 447.443H1136.98L1131.88 431.673H1131.79L1126.7 447.443ZM1145.39 427.167H1169.72V431.312H1160.03V460.059H1155.08V431.312H1145.39V427.167ZM1180.95 427.167V440.594H1196.27V427.167H1201.23V460.059H1196.27V444.469H1180.95V460.059H1176V427.167H1180.95ZM1210.99 431.312C1213.93 428.248 1217.87 426.716 1222.79 426.716C1227.72 426.716 1231.66 428.248 1234.6 431.312C1237.54 434.376 1239.02 438.476 1239.02 443.613C1239.02 448.749 1237.54 452.849 1234.6 455.913C1231.66 458.977 1227.72 460.509 1222.79 460.509C1217.87 460.509 1213.93 458.977 1210.99 455.913C1208.05 452.849 1206.57 448.749 1206.57 443.613C1206.57 438.476 1208.05 434.376 1210.99 431.312ZM1214.68 453.03C1216.73 455.313 1219.43 456.454 1222.79 456.454C1226.16 456.454 1228.86 455.313 1230.9 453.03C1232.95 450.717 1233.97 447.578 1233.97 443.613C1233.97 439.648 1232.95 436.524 1230.9 434.241C1228.86 431.928 1226.16 430.772 1222.79 430.772C1219.43 430.772 1216.73 431.928 1214.68 434.241C1212.64 436.524 1211.62 439.648 1211.62 443.613C1211.62 447.578 1212.64 450.717 1214.68 453.03ZM1244.37 460.059V427.167H1249.24L1264.65 451.723H1264.74V427.167H1269.61V460.059H1264.74L1249.33 435.503H1249.24V460.059H1244.37Z" fill="white"/>
<path d="M538.247 460.059H536.745V461.56H538.247V460.059ZM538.247 427.167V425.665H536.745V427.167H538.247ZM543.023 427.167L544.333 426.433L543.903 425.665H543.023V427.167ZM553.882 446.542L552.572 447.276L553.002 448.043H553.882V446.542ZM553.972 446.542V448.043H554.852L555.282 447.276L553.972 446.542ZM564.831 427.167V425.665H563.951L563.521 426.433L564.831 427.167ZM569.787 427.167H571.289V425.665H569.787V427.167ZM569.787 460.059V461.56H571.289V460.059H569.787ZM564.831 460.059H563.329V461.56H564.831V460.059ZM564.831 435.728H566.333V434.226H564.831V435.728ZM564.741 435.728V434.226H563.859L563.43 434.995L564.741 435.728ZM556.18 451.047V452.549H557.061L557.491 451.78L556.18 451.047ZM551.674 451.047L550.363 451.78L550.793 452.549H551.674V451.047ZM543.113 435.728L544.424 434.995L543.995 434.226H543.113V435.728ZM543.023 435.728V434.226H541.521V435.728H543.023ZM543.023 460.059V461.56H544.525V460.059H543.023ZM539.749 460.059V427.167H536.745V460.059H539.749ZM538.247 428.669H543.023V425.665H538.247V428.669ZM541.713 427.901L552.572 447.276L555.192 445.807L544.333 426.433L541.713 427.901ZM553.882 448.043H553.972V445.04H553.882V448.043ZM555.282 447.276L566.141 427.901L563.521 426.433L552.662 445.807L555.282 447.276ZM564.831 428.669H569.787V425.665H564.831V428.669ZM568.285 427.167V460.059H571.289V427.167H568.285ZM569.787 458.557H564.831V461.56H569.787V458.557ZM566.333 460.059V435.728H563.329V460.059H566.333ZM564.831 434.226H564.741V437.23H564.831V434.226ZM563.43 434.995L554.869 450.315L557.491 451.78L566.052 436.46L563.43 434.995ZM556.18 449.545H551.674V452.549H556.18V449.545ZM552.985 450.315L544.424 434.995L541.802 436.46L550.363 451.78L552.985 450.315ZM543.113 434.226H543.023V437.23H543.113V434.226ZM541.521 435.728V460.059H544.525V435.728H541.521ZM543.023 458.557H538.247V461.56H543.023V458.557ZM581.784 427.167H583.286V425.665H581.784V427.167ZM596.653 427.167V425.665H595.151V427.167H596.653ZM601.519 427.167H603.021V425.665H601.519V427.167ZM598.32 457.04L597.216 456.022L597.216 456.022L598.32 457.04ZM579.936 457.04L578.832 458.058L578.832 458.058L579.936 457.04ZM576.737 427.167V425.665H575.236V427.167H576.737ZM580.282 427.167V446.992H583.286V427.167H580.282ZM580.282 446.992C580.282 450.274 580.926 453.013 582.466 454.954C584.058 456.962 586.404 457.866 589.218 457.866V454.862C587.076 454.862 585.705 454.204 584.819 453.088C583.881 451.905 583.286 449.958 583.286 446.992H580.282ZM589.218 457.866C592.032 457.866 594.378 456.962 595.971 454.954C597.51 453.013 598.155 450.274 598.155 446.992H595.151C595.151 449.958 594.556 451.905 593.617 453.088C592.732 454.204 591.36 454.862 589.218 454.862V457.866ZM598.155 446.992V427.167H595.151V446.992H598.155ZM596.653 428.669H601.519V425.665H596.653V428.669ZM600.017 427.167V446.767H603.021V427.167H600.017ZM600.017 446.767C600.017 451.09 598.999 454.087 597.216 456.022L599.424 458.058C601.906 455.366 603.021 451.515 603.021 446.767H600.017ZM597.216 456.022C595.44 457.948 592.824 459.007 589.128 459.007V462.011C593.422 462.011 596.934 460.758 599.424 458.058L597.216 456.022ZM589.128 459.007C585.432 459.007 582.816 457.948 581.041 456.022L578.832 458.058C581.322 460.758 584.834 462.011 589.128 462.011V459.007ZM581.041 456.022C579.257 454.087 578.239 451.09 578.239 446.767H575.236C575.236 451.515 576.35 455.366 578.832 458.058L581.041 456.022ZM578.239 446.767V427.167H575.236V446.767H578.239ZM576.737 428.669H581.784V425.665H576.737V428.669ZM613.654 427.167H615.156V425.665H613.654V427.167ZM613.654 455.913H612.152V457.415H613.654V455.913ZM628.748 455.913H630.25V454.411H628.748V455.913ZM628.748 460.059V461.56H630.25V460.059H628.748ZM608.473 460.059H606.971V461.56H608.473V460.059ZM608.473 427.167V425.665H606.971V427.167H608.473ZM612.152 427.167V455.913H615.156V427.167H612.152ZM613.654 457.415H628.748V454.411H613.654V457.415ZM627.246 455.913V460.059H630.25V455.913H627.246ZM628.748 458.557H608.473V461.56H628.748V458.557ZM609.975 460.059V427.167H606.971V460.059H609.975ZM608.473 428.669H613.654V425.665H608.473V428.669ZM627.103 427.167V425.665H625.601V427.167H627.103ZM651.433 427.167H652.935V425.665H651.433V427.167ZM651.433 431.312V432.814H652.935V431.312H651.433ZM641.746 431.312V429.81H640.244V431.312H641.746ZM641.746 460.059V461.56H643.248V460.059H641.746ZM636.79 460.059H635.288V461.56H636.79V460.059ZM636.79 431.312H638.292V429.81H636.79V431.312ZM627.103 431.312H625.601V432.814H627.103V431.312ZM627.103 428.669H651.433V425.665H627.103V428.669ZM649.932 427.167V431.312H652.935V427.167H649.932ZM651.433 429.81H641.746V432.814H651.433V429.81ZM640.244 431.312V460.059H643.248V431.312H640.244ZM641.746 458.557H636.79V461.56H641.746V458.557ZM638.292 460.059V431.312H635.288V460.059H638.292ZM636.79 429.81H627.103V432.814H636.79V429.81ZM628.605 431.312V427.167H625.601V431.312H628.605ZM658.836 460.059H657.334V461.56H658.836V460.059ZM658.836 427.167V425.665H657.334V427.167H658.836ZM664.243 427.167H665.745V425.665H664.243V427.167ZM664.243 460.059V461.56H665.745V460.059H664.243ZM660.338 460.059V427.167H657.334V460.059H660.338ZM658.836 428.669H664.243V425.665H658.836V428.669ZM662.741 427.167V460.059H665.745V427.167H662.741ZM664.243 458.557H658.836V461.56H664.243V458.557ZM694.025 456.139L695.082 457.206L695.087 457.201L694.025 456.139ZM672.758 459.833H671.256V461.101L672.506 461.314L672.758 459.833ZM672.758 427.392L672.506 425.912L671.256 426.125V427.392H672.758ZM693.98 430.997L692.935 432.075L692.94 432.081L692.946 432.086L693.98 430.997ZM690.556 433.926L689.494 434.988L689.501 434.995L690.556 433.926ZM677.714 431.087L677.42 429.614L676.212 429.856V431.087H677.714ZM677.714 456.139H676.212V457.37L677.42 457.611L677.714 456.139ZM690.646 453.21L689.547 452.186L689.546 452.187L690.646 453.21ZM696.939 443.162C696.939 448.622 695.534 452.506 692.963 455.077L695.087 457.201C698.404 453.884 699.942 449.117 699.942 443.162H696.939ZM692.968 455.071C690.39 457.623 686.587 459.007 681.319 459.007V462.011C687.105 462.011 691.773 460.481 695.082 457.206L692.968 455.071ZM681.319 459.007C678.328 459.007 675.56 458.787 673.01 458.353L672.506 461.314C675.243 461.78 678.182 462.011 681.319 462.011V459.007ZM674.26 459.833V427.392H671.256V459.833H674.26ZM673.01 428.873C675.56 428.438 678.328 428.218 681.319 428.218V425.215C678.182 425.215 675.243 425.445 672.506 425.912L673.01 428.873ZM681.319 428.218C686.562 428.218 690.356 429.575 692.935 432.075L695.025 429.918C691.717 426.711 687.07 425.215 681.319 425.215V428.218ZM692.946 432.086C695.541 434.55 696.939 438.162 696.939 443.162H699.942C699.942 437.589 698.367 433.091 695.014 429.908L692.946 432.086ZM695.211 443.162C695.211 438.833 694.094 435.305 691.61 432.856L689.501 434.995C691.222 436.691 692.208 439.322 692.208 443.162H695.211ZM691.618 432.864C689.143 430.389 685.624 429.27 681.319 429.27V432.273C685.124 432.273 687.763 433.257 689.494 434.988L691.618 432.864ZM681.319 429.27C679.893 429.27 678.589 429.38 677.42 429.614L678.009 432.56C678.942 432.373 680.042 432.273 681.319 432.273V429.27ZM676.212 431.087V456.139H679.216V431.087H676.212ZM677.42 457.611C678.589 457.845 679.893 457.956 681.319 457.956V454.952C680.042 454.952 678.942 454.853 678.009 454.666L677.42 457.611ZM681.319 457.956C685.761 457.956 689.345 456.812 691.745 454.233L689.546 452.187C687.921 453.933 685.287 454.952 681.319 454.952V457.956ZM691.745 454.234C694.15 451.651 695.211 447.861 695.211 443.162H692.208C692.208 447.475 691.226 450.383 689.547 452.186L691.745 454.234ZM704.949 460.059H703.447V461.56H704.949V460.059ZM704.949 427.167V425.665H703.447V427.167H704.949ZM710.356 427.167H711.858V425.665H710.356V427.167ZM710.356 460.059V461.56H711.858V460.059H710.356ZM706.451 460.059V427.167H703.447V460.059H706.451ZM704.949 428.669H710.356V425.665H704.949V428.669ZM708.854 427.167V460.059H711.858V427.167H708.854ZM710.356 458.557H704.949V461.56H710.356V458.557ZM724.098 431.943L725.049 433.105L725.059 433.097L725.069 433.088L724.098 431.943ZM728.108 440.684L727.672 442.121L727.686 442.126L727.7 442.129L728.108 440.684ZM736.443 444.829L735.372 445.882L735.381 445.891L736.443 444.829ZM736.038 458.121L735.08 456.964L735.071 456.972L736.038 458.121ZM717.745 457.806L716.32 457.331L715.937 458.479L716.978 459.097L717.745 457.806ZM719.096 453.751L719.929 452.501L718.293 451.41L717.672 453.276L719.096 453.751ZM732.388 455.102L733.366 456.243L733.366 456.243L732.388 455.102ZM728.108 445.19L728.554 443.756L728.543 443.752L728.532 443.749L728.108 445.19ZM720.223 441.18L719.171 442.251L719.18 442.261L720.223 441.18ZM720.538 429.059L719.582 427.901L719.573 427.909L720.538 429.059ZM738.02 428.744L739.461 429.168L739.832 427.907L738.632 427.372L738.02 428.744ZM736.894 432.574L736.241 433.926L737.835 434.696L738.335 432.998L736.894 432.574ZM728.333 429.18C726.289 429.18 724.481 429.648 723.126 430.798L725.069 433.088C725.697 432.556 726.713 432.183 728.333 432.183V429.18ZM723.147 430.781C721.768 431.908 721.109 433.467 721.109 435.277H724.113C724.113 434.264 724.445 433.6 725.049 433.105L723.147 430.781ZM721.109 435.277C721.109 436.94 721.739 438.396 722.932 439.57C724.085 440.704 725.712 441.527 727.672 442.121L728.544 439.247C726.839 438.73 725.717 438.096 725.038 437.428C724.399 436.8 724.113 436.107 724.113 435.277H721.109ZM727.7 442.129C731.549 443.217 734.024 444.51 735.372 445.882L737.515 443.777C735.618 441.845 732.536 440.374 728.516 439.239L727.7 442.129ZM735.381 445.891C736.714 447.224 737.42 448.97 737.42 451.272H740.423C740.423 448.288 739.477 445.739 737.505 443.767L735.381 445.891ZM737.42 451.272C737.42 453.894 736.591 455.713 735.08 456.964L736.996 459.278C739.33 457.345 740.423 454.599 740.423 451.272H737.42ZM735.071 456.972C733.546 458.255 731.224 459.007 727.882 459.007V462.011C731.63 462.011 734.745 461.171 737.005 459.27L735.071 456.972ZM727.882 459.007C724.412 459.007 721.3 458.171 718.512 456.515L716.978 459.097C720.257 461.045 723.903 462.011 727.882 462.011V459.007ZM719.169 458.281L720.521 454.226L717.672 453.276L716.32 457.331L719.169 458.281ZM718.263 455C721.205 456.962 724.423 457.956 727.882 457.956V454.952C725.034 454.952 722.394 454.144 719.929 452.501L718.263 455ZM727.882 457.956C730.048 457.956 731.949 457.457 733.366 456.243L731.411 453.962C730.725 454.55 729.622 454.952 727.882 454.952V457.956ZM733.366 456.243C734.815 455.001 735.467 453.27 735.467 451.272H732.463C732.463 452.579 732.064 453.402 731.411 453.962L733.366 456.243ZM735.467 451.272C735.467 449.436 734.966 447.801 733.802 446.553L731.606 448.603C732.123 449.157 732.463 449.985 732.463 451.272H735.467ZM733.802 446.553C732.685 445.357 730.84 444.466 728.554 443.756L727.662 446.624C729.821 447.295 731.04 447.997 731.606 448.603L733.802 446.553ZM728.532 443.749C725.065 442.73 722.699 441.481 721.265 440.099L719.18 442.261C721.11 444.122 724.001 445.547 727.684 446.631L728.532 443.749ZM721.275 440.108C719.91 438.768 719.247 437.187 719.247 435.277H716.243C716.243 437.994 717.231 440.347 719.171 442.251L721.275 440.108ZM719.247 435.277C719.247 433.106 720.005 431.467 721.503 430.21L719.573 427.909C717.347 429.776 716.243 432.282 716.243 435.277H719.247ZM721.494 430.218C723.037 428.944 725.257 428.218 728.333 428.218V425.215C724.801 425.215 721.824 426.051 719.582 427.901L721.494 430.218ZM728.333 428.218C731.553 428.218 734.574 428.853 737.409 430.116L738.632 427.372C735.399 425.932 731.961 425.215 728.333 425.215V428.218ZM736.579 428.32L735.453 432.15L738.335 432.998L739.461 429.168L736.579 428.32ZM737.547 431.221C734.717 429.855 731.638 429.18 728.333 429.18V432.183C731.216 432.183 733.845 432.77 736.241 433.926L737.547 431.221ZM751.052 434.286L749.962 433.252L749.955 433.26L751.052 434.286ZM751.142 452.985L750.059 454.026L750.066 454.033L751.142 452.985ZM768.173 453.976L769.555 453.386L768.866 451.772L767.377 452.702L768.173 453.976ZM769.75 457.671L770.551 458.941L771.634 458.259L771.132 457.081L769.75 457.671ZM747.267 455.958L746.2 457.015L746.205 457.02L746.21 457.026L747.267 455.958ZM747.222 431.312L748.289 432.369L748.294 432.364L747.222 431.312ZM769.75 429.555L771.132 430.145L771.634 428.967L770.551 428.284L769.75 429.555ZM768.173 433.25L767.377 434.523L768.866 435.454L769.555 433.839L768.173 433.25ZM759.838 429.27C755.848 429.27 752.505 430.572 749.962 433.252L752.141 435.32C754.043 433.315 756.558 432.273 759.838 432.273V429.27ZM749.955 433.26C747.45 435.937 746.261 439.44 746.261 443.613H749.264C749.264 440.035 750.268 437.321 752.148 435.312L749.955 433.26ZM746.261 443.613C746.261 447.823 747.485 451.348 750.059 454.026L752.224 451.944C750.293 449.935 749.264 447.213 749.264 443.613H746.261ZM750.066 454.033C752.631 456.666 755.932 457.956 759.838 457.956V454.952C756.655 454.952 754.159 453.929 752.218 451.937L750.066 454.033ZM759.838 457.956C763.053 457.956 766.105 457.04 768.969 455.25L767.377 452.702C764.955 454.216 762.45 454.952 759.838 454.952V457.956ZM766.792 454.565L768.369 458.26L771.132 457.081L769.555 453.386L766.792 454.565ZM768.95 456.4C766.209 458.126 763.038 459.007 759.387 459.007V462.011C763.546 462.011 767.284 461 770.551 458.941L768.95 456.4ZM759.387 459.007C754.697 459.007 751.06 457.601 748.324 454.891L746.21 457.026C749.601 460.383 754.045 462.011 759.387 462.011V459.007ZM748.334 454.902C745.633 452.173 744.218 448.467 744.218 443.613H741.214C741.214 449.091 742.833 453.616 746.2 457.015L748.334 454.902ZM744.218 443.613C744.218 438.753 745.62 435.064 748.289 432.369L746.154 430.256C742.816 433.628 741.214 438.139 741.214 443.613H744.218ZM748.294 432.364C750.963 429.642 754.602 428.218 759.387 428.218V425.215C753.96 425.215 749.489 426.855 746.149 430.261L748.294 432.364ZM759.387 428.218C763.038 428.218 766.209 429.099 768.95 430.826L770.551 428.284C767.284 426.226 763.546 425.215 759.387 425.215V428.218ZM768.369 428.965L766.792 432.66L769.555 433.839L771.132 430.145L768.369 428.965ZM768.969 431.976C766.105 430.186 763.053 429.27 759.838 429.27V432.273C762.45 432.273 764.955 433.01 767.377 434.523L768.969 431.976ZM777.375 460.059H775.873V461.56H777.375V460.059ZM777.375 427.167V425.665H775.873V427.167H777.375ZM782.782 427.167H784.283V425.665H782.782V427.167ZM782.782 460.059V461.56H784.283V460.059H782.782ZM778.877 460.059V427.167H775.873V460.059H778.877ZM777.375 428.669H782.782V425.665H777.375V428.669ZM781.28 427.167V460.059H784.283V427.167H781.28ZM782.782 458.557H777.375V461.56H782.782V458.557ZM796.253 447.668L796.384 446.172L794.751 446.029V447.668H796.253ZM796.253 460.059V461.56H797.755V460.059H796.253ZM791.297 460.059H789.795V461.56H791.297V460.059ZM791.297 427.392L791.082 425.906L789.795 426.091V427.392H791.297ZM810.626 429.375L809.666 430.53L809.676 430.538L810.626 429.375ZM796.253 443.658H794.751V444.939L796.016 445.141L796.253 443.658ZM806.841 442.306L807.786 443.474L807.793 443.468L807.8 443.462L806.841 442.306ZM806.886 432.394L805.93 433.552L805.937 433.558L805.945 433.564L806.886 432.394ZM796.253 430.997L796.012 429.514L794.751 429.72V430.997H796.253ZM794.751 447.668V460.059H797.755V447.668H794.751ZM796.253 458.557H791.297V461.56H796.253V458.557ZM792.799 460.059V427.392H789.795V460.059H792.799ZM791.511 428.879C794.557 428.439 797.789 428.218 801.209 428.218V425.215C797.66 425.215 794.284 425.444 791.082 425.906L791.511 428.879ZM801.209 428.218C805.171 428.218 807.909 429.069 809.666 430.53L811.586 428.22C809.078 426.136 805.538 425.215 801.209 425.215V428.218ZM809.676 430.538C811.396 431.943 812.323 433.972 812.323 436.854H815.327C815.327 433.249 814.122 430.291 811.576 428.212L809.676 430.538ZM812.323 436.854C812.323 440.246 811.363 442.532 809.682 444.003C807.963 445.508 805.229 446.391 801.209 446.391V449.395C805.6 449.395 809.174 448.439 811.66 446.264C814.184 444.055 815.327 440.821 815.327 436.854H812.323ZM801.209 446.391C799.664 446.391 798.056 446.318 796.384 446.172L796.122 449.164C797.874 449.318 799.57 449.395 801.209 449.395V446.391ZM796.016 445.141C797.595 445.394 799.176 445.52 800.759 445.52V442.516C799.337 442.516 797.915 442.403 796.49 442.175L796.016 445.141ZM800.759 445.52C803.594 445.52 806.008 444.911 807.786 443.474L805.897 441.138C804.851 441.984 803.21 442.516 800.759 442.516V445.52ZM807.8 443.462C809.619 441.953 810.461 439.826 810.461 437.305H807.457C807.457 439.109 806.887 440.316 805.882 441.15L807.8 443.462ZM810.461 437.305C810.461 434.798 809.642 432.682 807.828 431.223L805.945 433.564C806.894 434.328 807.457 435.487 807.457 437.305H810.461ZM807.843 431.236C806.085 429.783 803.641 429.18 800.759 429.18V432.183C803.283 432.183 804.924 432.721 805.93 433.552L807.843 431.236ZM800.759 429.18C798.989 429.18 797.403 429.288 796.012 429.514L796.494 432.479C797.686 432.285 799.104 432.183 800.759 432.183V429.18ZM794.751 430.997V443.658H797.755V430.997H794.751ZM824.155 427.167H825.657V425.665H824.155V427.167ZM824.155 455.913H822.653V457.415H824.155V455.913ZM839.249 455.913H840.751V454.411H839.249V455.913ZM839.249 460.059V461.56H840.751V460.059H839.249ZM818.973 460.059H817.471V461.56H818.973V460.059ZM818.973 427.167V425.665H817.471V427.167H818.973ZM822.653 427.167V455.913H825.657V427.167H822.653ZM824.155 457.415H839.249V454.411H824.155V457.415ZM837.747 455.913V460.059H840.751V455.913H837.747ZM839.249 458.557H818.973V461.56H839.249V458.557ZM820.475 460.059V427.167H817.471V460.059H820.475ZM818.973 428.669H824.155V425.665H818.973V428.669ZM846.632 460.059H845.13V461.56H846.632V460.059ZM846.632 427.167V425.665H845.13V427.167H846.632ZM852.039 427.167H853.541V425.665H852.039V427.167ZM852.039 460.059V461.56H853.541V460.059H852.039ZM848.134 460.059V427.167H845.13V460.059H848.134ZM846.632 428.669H852.039V425.665H846.632V428.669ZM850.537 427.167V460.059H853.541V427.167H850.537ZM852.039 458.557H846.632V461.56H852.039V458.557ZM860.554 460.059H859.052V461.56H860.554V460.059ZM860.554 427.167V425.665H859.052V427.167H860.554ZM865.42 427.167L866.692 426.369L866.251 425.665H865.42V427.167ZM880.83 451.723L879.558 452.521L879.999 453.225H880.83V451.723ZM880.92 451.723V453.225H882.422V451.723H880.92ZM880.92 427.167V425.665H879.418V427.167H880.92ZM885.786 427.167H887.288V425.665H885.786V427.167ZM885.786 460.059V461.56H887.288V460.059H885.786ZM880.92 460.059L879.648 460.857L880.089 461.56H880.92V460.059ZM865.51 435.503L866.783 434.704L866.341 434.001H865.51V435.503ZM865.42 435.503V434.001H863.918V435.503H865.42ZM865.42 460.059V461.56H866.922V460.059H865.42ZM862.056 460.059V427.167H859.052V460.059H862.056ZM860.554 428.669H865.42V425.665H860.554V428.669ZM864.148 427.965L879.558 452.521L882.102 450.925L866.692 426.369L864.148 427.965ZM880.83 453.225H880.92V450.221H880.83V453.225ZM882.422 451.723V427.167H879.418V451.723H882.422ZM880.92 428.669H885.786V425.665H880.92V428.669ZM884.284 427.167V460.059H887.288V427.167H884.284ZM885.786 458.557H880.92V461.56H885.786V458.557ZM882.192 459.26L866.783 434.704L864.238 436.301L879.648 460.857L882.192 459.26ZM865.51 434.001H865.42V437.004H865.51V434.001ZM863.918 435.503V460.059H866.922V435.503H863.918ZM865.42 458.557H860.554V461.56H865.42V458.557ZM890.906 460.059L889.491 459.555L888.777 461.56H890.906V460.059ZM902.621 427.167V425.665H901.561L901.206 426.663L902.621 427.167ZM908.028 427.167L909.442 426.663L909.087 425.665H908.028V427.167ZM919.742 460.059V461.56H921.872L921.157 459.555L919.742 460.059ZM914.426 460.059L912.997 460.522L913.334 461.56H914.426V460.059ZM911.587 451.318L913.016 450.854L912.678 449.816H911.587V451.318ZM898.881 451.318V449.816H897.79L897.453 450.854L898.881 451.318ZM896.042 460.059V461.56H897.134L897.471 460.522L896.042 460.059ZM900.098 447.443L898.668 446.981L898.034 448.945H900.098V447.443ZM910.371 447.443V448.945H912.434L911.8 446.981L910.371 447.443ZM905.279 431.673L906.708 431.211L906.372 430.171H905.279V431.673ZM905.189 431.673V430.171H904.096L903.76 431.211L905.189 431.673ZM892.321 460.563L904.036 427.671L901.206 426.663L889.491 459.555L892.321 460.563ZM902.621 428.669H908.028V425.665H902.621V428.669ZM906.613 427.671L918.328 460.563L921.157 459.555L909.442 426.663L906.613 427.671ZM919.742 458.557H914.426V461.56H919.742V458.557ZM915.854 459.595L913.016 450.854L910.159 451.781L912.997 460.522L915.854 459.595ZM911.587 449.816H898.881V452.819H911.587V449.816ZM897.453 450.854L894.614 459.595L897.471 460.522L900.31 451.781L897.453 450.854ZM896.042 458.557H890.906V461.56H896.042V458.557ZM900.098 448.945H910.371V445.941H900.098V448.945ZM911.8 446.981L906.708 431.211L903.85 432.134L908.941 447.904L911.8 446.981ZM905.279 430.171H905.189V433.175H905.279V430.171ZM903.76 431.211L898.668 446.981L901.527 447.904L906.618 432.134L903.76 431.211ZM929.84 446.542V445.04H928.338V446.542H929.84ZM929.84 460.059V461.56H931.342V460.059H929.84ZM924.884 460.059H923.382V461.56H924.884V460.059ZM924.884 427.392L924.647 425.909L923.382 426.111V427.392H924.884ZM943.672 429.104L944.555 427.889L944.555 427.889L943.672 429.104ZM945.204 441.585L946.422 442.465L946.422 442.465L945.204 441.585ZM940.428 444.919L939.999 443.48L938.926 443.8V444.919H940.428ZM940.428 445.01H938.926V445.857L939.651 446.295L940.428 445.01ZM944.033 450.371L945.429 449.819L945.428 449.816L944.033 450.371ZM947.863 460.059V461.56H950.071L949.259 459.506L947.863 460.059ZM942.726 460.059L941.325 460.599L941.696 461.56H942.726V460.059ZM938.986 450.371L940.387 449.83L940.386 449.827L938.986 450.371ZM936.869 447.262L936.059 448.527L936.088 448.546L936.118 448.563L936.869 447.262ZM929.84 442.667H928.338V444.169H929.84V442.667ZM940.023 432.078L939.171 433.315L939.186 433.326L939.202 433.336L940.023 432.078ZM929.84 430.997L929.545 429.524L928.338 429.766V430.997H929.84ZM928.338 446.542V460.059H931.342V446.542H928.338ZM929.84 458.557H924.884V461.56H929.84V458.557ZM926.385 460.059V427.392H923.382V460.059H926.385ZM925.12 428.875C927.857 428.439 930.781 428.218 933.895 428.218V425.215C930.64 425.215 927.557 425.445 924.647 425.909L925.12 428.875ZM933.895 428.218C938.078 428.218 940.966 428.995 942.79 430.32L944.555 427.889C941.993 426.029 938.363 425.215 933.895 425.215V428.218ZM942.79 430.32C944.575 431.616 945.46 433.361 945.46 435.728H948.463C948.463 432.447 947.155 429.777 944.555 427.889L942.79 430.32ZM945.46 435.728C945.46 437.741 944.948 439.375 943.987 440.706L946.422 442.465C947.803 440.551 948.463 438.28 948.463 435.728H945.46ZM943.987 440.706C943.019 442.046 941.711 442.969 939.999 443.48L940.858 446.359C943.171 445.668 945.046 444.369 946.422 442.465L943.987 440.706ZM938.926 444.919V445.01H941.93V444.919H938.926ZM939.651 446.295C940.495 446.805 941.546 448.184 942.637 450.927L945.428 449.816C944.297 446.972 942.944 444.776 941.205 443.724L939.651 446.295ZM942.636 450.924L946.466 460.611L949.259 459.506L945.429 449.819L942.636 450.924ZM947.863 458.557H942.726V461.56H947.863V458.557ZM944.127 459.518L940.387 449.83L937.585 450.912L941.325 460.599L944.127 459.518ZM940.386 449.827C939.73 448.141 938.868 446.682 937.619 445.961L936.118 448.563C936.431 448.744 936.981 449.358 937.587 450.916L940.386 449.827ZM937.678 445.997C937.057 445.6 936.28 445.375 935.471 445.24C934.641 445.102 933.658 445.04 932.543 445.04V448.043C933.561 448.043 934.366 448.101 934.977 448.203C935.61 448.309 935.93 448.445 936.059 448.527L937.678 445.997ZM932.543 445.04H929.84V448.043H932.543V445.04ZM929.84 444.169H932.543V441.165H929.84V444.169ZM932.543 444.169C935.85 444.169 938.595 443.615 940.551 442.287C942.611 440.888 943.597 438.767 943.597 436.178H940.593C940.593 437.916 939.988 439.038 938.863 439.802C937.635 440.636 935.604 441.165 932.543 441.165V444.169ZM943.597 436.178C943.597 433.905 942.703 432.033 940.843 430.82L939.202 433.336C940.106 433.926 940.593 434.787 940.593 436.178H943.597ZM940.875 430.841C939.137 429.644 936.56 429.18 933.444 429.18V432.183C936.396 432.183 938.205 432.65 939.171 433.315L940.875 430.841ZM933.444 429.18C932.018 429.18 930.715 429.29 929.545 429.524L930.134 432.47C931.067 432.283 932.167 432.183 933.444 432.183V429.18ZM928.338 430.997V442.667H931.342V430.997H928.338ZM954.53 427.167L955.846 426.443L955.418 425.665H954.53V427.167ZM962.956 442.486L961.64 443.21L962.068 443.988H962.956V442.486ZM963.046 442.486V443.988H963.934L964.362 443.21L963.046 442.486ZM971.472 427.167V425.665H970.584L970.156 426.443L971.472 427.167ZM977.104 427.167L978.393 427.938L979.751 425.665H977.104V427.167ZM965.524 446.542L964.235 445.771L964.022 446.127V446.542H965.524ZM965.524 460.059V461.56H967.026V460.059H965.524ZM960.298 460.059H958.796V461.56H960.298V460.059ZM960.298 446.542H961.799V446.127L961.587 445.771L960.298 446.542ZM948.718 427.167V425.665H946.071L947.429 427.938L948.718 427.167ZM953.214 427.891L961.64 443.21L964.272 441.763L955.846 426.443L953.214 427.891ZM962.956 443.988H963.046V440.984H962.956V443.988ZM964.362 443.21L972.788 427.891L970.156 426.443L961.73 441.763L964.362 443.21ZM971.472 428.669H977.104V425.665H971.472V428.669ZM975.815 426.396L964.235 445.771L966.813 447.312L978.393 427.938L975.815 426.396ZM964.022 446.542V460.059H967.026V446.542H964.022ZM965.524 458.557H960.298V461.56H965.524V458.557ZM961.799 460.059V446.542H958.796V460.059H961.799ZM961.587 445.771L950.007 426.396L947.429 427.938L959.008 447.312L961.587 445.771ZM948.718 428.669H954.53V425.665H948.718V428.669ZM1000.33 427.167H1001.83V425.665H1000.33V427.167ZM1000.33 440.594H998.827V442.096H1000.33V440.594ZM1015.65 440.594V442.096H1017.15V440.594H1015.65ZM1015.65 427.167V425.665H1014.15V427.167H1015.65ZM1020.6 427.167H1022.11V425.665H1020.6V427.167ZM1020.6 460.059V461.56H1022.11V460.059H1020.6ZM1015.65 460.059H1014.15V461.56H1015.65V460.059ZM1015.65 444.469H1017.15V442.967H1015.65V444.469ZM1000.33 444.469V442.967H998.827V444.469H1000.33ZM1000.33 460.059V461.56H1001.83V460.059H1000.33ZM995.373 460.059H993.871V461.56H995.373V460.059ZM995.373 427.167V425.665H993.871V427.167H995.373ZM998.827 427.167V440.594H1001.83V427.167H998.827ZM1000.33 442.096H1015.65V439.092H1000.33V442.096ZM1017.15 440.594V427.167H1014.15V440.594H1017.15ZM1015.65 428.669H1020.6V425.665H1015.65V428.669ZM1019.1 427.167V460.059H1022.11V427.167H1019.1ZM1020.6 458.557H1015.65V461.56H1020.6V458.557ZM1017.15 460.059V444.469H1014.15V460.059H1017.15ZM1015.65 442.967H1000.33V445.971H1015.65V442.967ZM998.827 444.469V460.059H1001.83V444.469H998.827ZM1000.33 458.557H995.373V461.56H1000.33V458.557ZM996.875 460.059V427.167H993.871V460.059H996.875ZM995.373 428.669H1000.33V425.665H995.373V428.669ZM1025.72 460.059L1024.31 459.555L1023.6 461.56H1025.72V460.059ZM1037.44 427.167V425.665H1036.38L1036.02 426.663L1037.44 427.167ZM1042.85 427.167L1044.26 426.663L1043.91 425.665H1042.85V427.167ZM1054.56 460.059V461.56H1056.69L1055.98 459.555L1054.56 460.059ZM1049.24 460.059L1047.82 460.522L1048.15 461.56H1049.24V460.059ZM1046.41 451.318L1047.83 450.854L1047.5 449.816H1046.41V451.318ZM1033.7 451.318V449.816H1032.61L1032.27 450.854L1033.7 451.318ZM1030.86 460.059V461.56H1031.95L1032.29 460.522L1030.86 460.059ZM1034.92 447.443L1033.49 446.981L1032.85 448.945H1034.92V447.443ZM1045.19 447.443V448.945H1047.25L1046.62 446.981L1045.19 447.443ZM1040.1 431.673L1041.53 431.211L1041.19 430.171H1040.1V431.673ZM1040.01 431.673V430.171H1038.91L1038.58 431.211L1040.01 431.673ZM1027.14 460.563L1038.85 427.671L1036.02 426.663L1024.31 459.555L1027.14 460.563ZM1037.44 428.669H1042.85V425.665H1037.44V428.669ZM1041.43 427.671L1053.15 460.563L1055.98 459.555L1044.26 426.663L1041.43 427.671ZM1054.56 458.557H1049.24V461.56H1054.56V458.557ZM1050.67 459.595L1047.83 450.854L1044.98 451.781L1047.82 460.522L1050.67 459.595ZM1046.41 449.816H1033.7V452.819H1046.41V449.816ZM1032.27 450.854L1029.43 459.595L1032.29 460.522L1035.13 451.781L1032.27 450.854ZM1030.86 458.557H1025.72V461.56H1030.86V458.557ZM1034.92 448.945H1045.19V445.941H1034.92V448.945ZM1046.62 446.981L1041.53 431.211L1038.67 432.134L1043.76 447.904L1046.62 446.981ZM1040.1 430.171H1040.01V433.175H1040.1V430.171ZM1038.58 431.211L1033.49 446.981L1036.35 447.904L1041.44 432.134L1038.58 431.211ZM1064.65 434.286L1063.56 433.252L1063.55 433.26L1064.65 434.286ZM1064.74 452.985L1063.65 454.026L1063.66 454.033L1064.74 452.985ZM1081.77 453.976L1083.15 453.386L1082.46 451.772L1080.97 452.702L1081.77 453.976ZM1083.35 457.671L1084.15 458.941L1085.23 458.259L1084.73 457.081L1083.35 457.671ZM1060.86 455.958L1059.79 457.015L1059.8 457.02L1059.8 457.026L1060.86 455.958ZM1060.82 431.312L1061.88 432.369L1061.89 432.364L1060.82 431.312ZM1083.35 429.555L1084.73 430.145L1085.23 428.967L1084.15 428.284L1083.35 429.555ZM1081.77 433.25L1080.97 434.523L1082.46 435.454L1083.15 433.839L1081.77 433.25ZM1073.43 429.27C1069.44 429.27 1066.1 430.572 1063.56 433.252L1065.74 435.32C1067.64 433.315 1070.15 432.273 1073.43 432.273V429.27ZM1063.55 433.26C1061.04 435.937 1059.86 439.44 1059.86 443.613H1062.86C1062.86 440.035 1063.86 437.321 1065.74 435.312L1063.55 433.26ZM1059.86 443.613C1059.86 447.823 1061.08 451.348 1063.65 454.026L1065.82 451.944C1063.89 449.935 1062.86 447.213 1062.86 443.613H1059.86ZM1063.66 454.033C1066.23 456.666 1069.53 457.956 1073.43 457.956V454.952C1070.25 454.952 1067.75 453.929 1065.81 451.937L1063.66 454.033ZM1073.43 457.956C1076.65 457.956 1079.7 457.04 1082.56 455.25L1080.97 452.702C1078.55 454.216 1076.04 454.952 1073.43 454.952V457.956ZM1080.39 454.565L1081.96 458.26L1084.73 457.081L1083.15 453.386L1080.39 454.565ZM1082.54 456.4C1079.8 458.126 1076.63 459.007 1072.98 459.007V462.011C1077.14 462.011 1080.88 461 1084.15 458.941L1082.54 456.4ZM1072.98 459.007C1068.29 459.007 1064.66 457.601 1061.92 454.891L1059.8 457.026C1063.2 460.383 1067.64 462.011 1072.98 462.011V459.007ZM1061.93 454.902C1059.23 452.173 1057.81 448.467 1057.81 443.613H1054.81C1054.81 449.091 1056.43 453.616 1059.79 457.015L1061.93 454.902ZM1057.81 443.613C1057.81 438.753 1059.22 435.064 1061.88 432.369L1059.75 430.256C1056.41 433.628 1054.81 438.139 1054.81 443.613H1057.81ZM1061.89 432.364C1064.56 429.642 1068.2 428.218 1072.98 428.218V425.215C1067.55 425.215 1063.08 426.855 1059.74 430.261L1061.89 432.364ZM1072.98 428.218C1076.63 428.218 1079.8 429.099 1082.54 430.826L1084.15 428.284C1080.88 426.226 1077.14 425.215 1072.98 425.215V428.218ZM1081.96 428.965L1080.39 432.66L1083.15 433.839L1084.73 430.145L1081.96 428.965ZM1082.56 431.976C1079.7 430.186 1076.65 429.27 1073.43 429.27V432.273C1076.04 432.273 1078.55 433.01 1080.97 434.523L1082.56 431.976ZM1094.8 427.167H1096.3V425.665H1094.8V427.167ZM1094.8 441.585H1093.3V443.087H1094.8V441.585ZM1094.89 441.585V443.087H1095.56L1096.01 442.59L1094.89 441.585ZM1107.87 427.167V425.665H1107.2L1106.75 426.162L1107.87 427.167ZM1113.72 427.167L1114.83 428.18L1117.13 425.665H1113.72V427.167ZM1099.31 442.937L1098.2 441.924L1097.29 442.911L1098.17 443.922L1099.31 442.937ZM1114.17 460.059V461.56H1117.47L1115.31 459.074L1114.17 460.059ZM1108.32 460.059L1107.17 461.032L1107.62 461.56H1108.32V460.059ZM1094.89 444.289L1096.03 443.315L1095.58 442.787H1094.89V444.289ZM1094.8 444.289V442.787H1093.3V444.289H1094.8ZM1094.8 460.059V461.56H1096.3V460.059H1094.8ZM1089.84 460.059H1088.34V461.56H1089.84V460.059ZM1089.84 427.167V425.665H1088.34V427.167H1089.84ZM1093.3 427.167V441.585H1096.3V427.167H1093.3ZM1094.8 443.087H1094.89V440.083H1094.8V443.087ZM1096.01 442.59L1108.98 428.172L1106.75 426.162L1093.77 440.581L1096.01 442.59ZM1107.87 428.669H1113.72V425.665H1107.87V428.669ZM1112.61 426.154L1098.2 441.924L1100.41 443.95L1114.83 428.18L1112.61 426.154ZM1098.17 443.922L1113.04 461.043L1115.31 459.074L1100.44 441.952L1098.17 443.922ZM1114.17 458.557H1108.32V461.56H1114.17V458.557ZM1109.46 459.085L1096.03 443.315L1093.75 445.262L1107.17 461.032L1109.46 459.085ZM1094.89 442.787H1094.8V445.791H1094.89V442.787ZM1093.3 444.289V460.059H1096.3V444.289H1093.3ZM1094.8 458.557H1089.84V461.56H1094.8V458.557ZM1091.34 460.059V427.167H1088.34V460.059H1091.34ZM1089.84 428.669H1094.8V425.665H1089.84V428.669ZM1117.51 460.059L1116.1 459.555L1115.38 461.56H1117.51V460.059ZM1129.23 427.167V425.665H1128.17L1127.81 426.663L1129.23 427.167ZM1134.63 427.167L1136.05 426.663L1135.69 425.665H1134.63V427.167ZM1146.35 460.059V461.56H1148.48L1147.76 459.555L1146.35 460.059ZM1141.03 460.059L1139.6 460.522L1139.94 461.56H1141.03V460.059ZM1138.19 451.318L1139.62 450.854L1139.28 449.816H1138.19V451.318ZM1125.49 451.318V449.816H1124.39L1124.06 450.854L1125.49 451.318ZM1122.65 460.059V461.56H1123.74L1124.08 460.522L1122.65 460.059ZM1126.7 447.443L1125.27 446.981L1124.64 448.945H1126.7V447.443ZM1136.98 447.443V448.945H1139.04L1138.4 446.981L1136.98 447.443ZM1131.88 431.673L1133.31 431.211L1132.98 430.171H1131.88V431.673ZM1131.79 431.673V430.171H1130.7L1130.36 431.211L1131.79 431.673ZM1118.93 460.563L1130.64 427.671L1127.81 426.663L1116.1 459.555L1118.93 460.563ZM1129.23 428.669H1134.63V425.665H1129.23V428.669ZM1133.22 427.671L1144.93 460.563L1147.76 459.555L1136.05 426.663L1133.22 427.671ZM1146.35 458.557H1141.03V461.56H1146.35V458.557ZM1142.46 459.595L1139.62 450.854L1136.76 451.781L1139.6 460.522L1142.46 459.595ZM1138.19 449.816H1125.49V452.819H1138.19V449.816ZM1124.06 450.854L1121.22 459.595L1124.08 460.522L1126.91 451.781L1124.06 450.854ZM1122.65 458.557H1117.51V461.56H1122.65V458.557ZM1126.7 448.945H1136.98V445.941H1126.7V448.945ZM1138.4 446.981L1133.31 431.211L1130.45 432.134L1135.55 447.904L1138.4 446.981ZM1131.88 430.171H1131.79V433.175H1131.88V430.171ZM1130.36 431.211L1125.27 446.981L1128.13 447.904L1133.22 432.134L1130.36 431.211ZM1145.39 427.167V425.665H1143.89V427.167H1145.39ZM1169.72 427.167H1171.22V425.665H1169.72V427.167ZM1169.72 431.312V432.814H1171.22V431.312H1169.72ZM1160.03 431.312V429.81H1158.53V431.312H1160.03ZM1160.03 460.059V461.56H1161.54V460.059H1160.03ZM1155.08 460.059H1153.58V461.56H1155.08V460.059ZM1155.08 431.312H1156.58V429.81H1155.08V431.312ZM1145.39 431.312H1143.89V432.814H1145.39V431.312ZM1145.39 428.669H1169.72V425.665H1145.39V428.669ZM1168.22 427.167V431.312H1171.22V427.167H1168.22ZM1169.72 429.81H1160.03V432.814H1169.72V429.81ZM1158.53 431.312V460.059H1161.54V431.312H1158.53ZM1160.03 458.557H1155.08V461.56H1160.03V458.557ZM1156.58 460.059V431.312H1153.58V460.059H1156.58ZM1155.08 429.81H1145.39V432.814H1155.08V429.81ZM1146.89 431.312V427.167H1143.89V431.312H1146.89ZM1180.95 427.167H1182.46V425.665H1180.95V427.167ZM1180.95 440.594H1179.45V442.096H1180.95V440.594ZM1196.27 440.594V442.096H1197.77V440.594H1196.27ZM1196.27 427.167V425.665H1194.77V427.167H1196.27ZM1201.23 427.167H1202.73V425.665H1201.23V427.167ZM1201.23 460.059V461.56H1202.73V460.059H1201.23ZM1196.27 460.059H1194.77V461.56H1196.27V460.059ZM1196.27 444.469H1197.77V442.967H1196.27V444.469ZM1180.95 444.469V442.967H1179.45V444.469H1180.95ZM1180.95 460.059V461.56H1182.46V460.059H1180.95ZM1176 460.059H1174.5V461.56H1176V460.059ZM1176 427.167V425.665H1174.5V427.167H1176ZM1179.45 427.167V440.594H1182.46V427.167H1179.45ZM1180.95 442.096H1196.27V439.092H1180.95V442.096ZM1197.77 440.594V427.167H1194.77V440.594H1197.77ZM1196.27 428.669H1201.23V425.665H1196.27V428.669ZM1199.73 427.167V460.059H1202.73V427.167H1199.73ZM1201.23 458.557H1196.27V461.56H1201.23V458.557ZM1197.77 460.059V444.469H1194.77V460.059H1197.77ZM1196.27 442.967H1180.95V445.971H1196.27V442.967ZM1179.45 444.469V460.059H1182.46V444.469H1179.45ZM1180.95 458.557H1176V461.56H1180.95V458.557ZM1177.5 460.059V427.167H1174.5V460.059H1177.5ZM1176 428.669H1180.95V425.665H1176V428.669ZM1234.6 455.913L1233.52 454.873L1233.52 454.873L1234.6 455.913ZM1210.99 455.913L1212.07 454.873L1212.07 454.873L1210.99 455.913ZM1214.68 453.03L1213.56 454.024L1213.57 454.031L1214.68 453.03ZM1230.9 453.03L1232.02 454.031L1232.03 454.024L1230.9 453.03ZM1230.9 434.241L1229.78 435.235L1229.79 435.242L1230.9 434.241ZM1214.68 434.241L1215.8 435.242L1215.81 435.235L1214.68 434.241ZM1212.07 432.353C1214.69 429.631 1218.21 428.218 1222.79 428.218V425.215C1217.53 425.215 1213.18 426.866 1209.91 430.272L1212.07 432.353ZM1222.79 428.218C1227.38 428.218 1230.9 429.631 1233.52 432.353L1235.68 430.272C1232.41 426.866 1228.06 425.215 1222.79 425.215V428.218ZM1233.52 432.353C1236.14 435.081 1237.51 438.778 1237.51 443.613H1240.52C1240.52 438.174 1238.95 433.672 1235.68 430.272L1233.52 432.353ZM1237.51 443.613C1237.51 448.447 1236.14 452.145 1233.52 454.873L1235.68 456.954C1238.95 453.554 1240.52 449.051 1240.52 443.613H1237.51ZM1233.52 454.873C1230.9 457.594 1227.38 459.007 1222.79 459.007V462.011C1228.06 462.011 1232.41 460.36 1235.68 456.954L1233.52 454.873ZM1222.79 459.007C1218.21 459.007 1214.69 457.594 1212.07 454.873L1209.91 456.954C1213.18 460.36 1217.53 462.011 1222.79 462.011V459.007ZM1212.07 454.873C1209.45 452.145 1208.08 448.447 1208.08 443.613H1205.07C1205.07 449.051 1206.64 453.554 1209.91 456.954L1212.07 454.873ZM1208.08 443.613C1208.08 438.778 1209.45 435.081 1212.07 432.353L1209.91 430.272C1206.64 433.672 1205.07 438.174 1205.07 443.613H1208.08ZM1213.57 454.031C1215.92 456.666 1219.05 457.956 1222.79 457.956V454.952C1219.81 454.952 1217.53 453.959 1215.8 452.028L1213.57 454.031ZM1222.79 457.956C1226.54 457.956 1229.67 456.666 1232.02 454.031L1229.79 452.028C1228.06 453.959 1225.78 454.952 1222.79 454.952V457.956ZM1232.03 454.024C1234.38 451.366 1235.47 447.837 1235.47 443.613H1232.47C1232.47 447.319 1231.52 450.068 1229.78 452.036L1232.03 454.024ZM1235.47 443.613C1235.47 439.39 1234.38 435.871 1232.02 433.239L1229.79 435.242C1231.52 437.177 1232.47 439.906 1232.47 443.613H1235.47ZM1232.03 433.247C1229.68 430.58 1226.55 429.27 1222.79 429.27V432.273C1225.77 432.273 1228.05 433.276 1229.78 435.235L1232.03 433.247ZM1222.79 429.27C1219.04 429.27 1215.91 430.58 1213.56 433.247L1215.81 435.235C1217.54 433.276 1219.82 432.273 1222.79 432.273V429.27ZM1213.57 433.239C1211.21 435.871 1210.12 439.39 1210.12 443.613H1213.12C1213.12 439.906 1214.07 437.177 1215.8 435.242L1213.57 433.239ZM1210.12 443.613C1210.12 447.837 1211.21 451.366 1213.56 454.024L1215.81 452.036C1214.07 450.068 1213.12 447.319 1213.12 443.613H1210.12ZM1244.37 460.059H1242.87V461.56H1244.37V460.059ZM1244.37 427.167V425.665H1242.87V427.167H1244.37ZM1249.24 427.167L1250.51 426.369L1250.07 425.665H1249.24V427.167ZM1264.65 451.723L1263.38 452.521L1263.82 453.225H1264.65V451.723ZM1264.74 451.723V453.225H1266.24V451.723H1264.74ZM1264.74 427.167V425.665H1263.24V427.167H1264.74ZM1269.61 427.167H1271.11V425.665H1269.61V427.167ZM1269.61 460.059V461.56H1271.11V460.059H1269.61ZM1264.74 460.059L1263.47 460.857L1263.91 461.56H1264.74V460.059ZM1249.33 435.503L1250.6 434.704L1250.16 434.001H1249.33V435.503ZM1249.24 435.503V434.001H1247.74V435.503H1249.24ZM1249.24 460.059V461.56H1250.74V460.059H1249.24ZM1245.88 460.059V427.167H1242.87V460.059H1245.88ZM1244.37 428.669H1249.24V425.665H1244.37V428.669ZM1247.97 427.965L1263.38 452.521L1265.92 450.925L1250.51 426.369L1247.97 427.965ZM1264.65 453.225H1264.74V450.221H1264.65V453.225ZM1266.24 451.723V427.167H1263.24V451.723H1266.24ZM1264.74 428.669H1269.61V425.665H1264.74V428.669ZM1268.1 427.167V460.059H1271.11V427.167H1268.1ZM1269.61 458.557H1264.74V461.56H1269.61V458.557ZM1266.01 459.26L1250.6 434.704L1248.06 436.301L1263.47 460.857L1266.01 459.26ZM1249.33 434.001H1249.24V437.004H1249.33V434.001ZM1247.74 435.503V460.059H1250.74V435.503H1247.74ZM1249.24 458.557H1244.37V461.56H1249.24V458.557Z" fill="black" mask="url(#path-1-outside-1_619_212)"/>
<path d="M89.0726 416.626H1.51649L44.5298 370.403H89.0726H151.216H211.333L177.808 416.626H89.0726Z" fill="white" stroke="white" stroke-width="1.32067"/>
<path d="M726.002 343.69L681.591 343.986L722.044 390.219H768.966H891.47L857.438 343.69H768.966H726.004H726.002Z" fill="white" stroke="white" stroke-width="1.32067"/>
<path d="M204.703 375.069H346.391L401.482 348.621H703.634" stroke="white" stroke-width="10.5653"/>
<path d="M884.208 385.789H1265.2" stroke="white" stroke-width="10.5653"/>
<path d="M192.887 416.135L218.342 384.932H241.515L217.702 416.135H192.887Z" fill="white" stroke="white" stroke-width="1.32067"/>
<path d="M228.831 416.135L254.286 384.932H277.459L253.646 416.135H228.831Z" fill="white" stroke="white" stroke-width="1.32067"/>
<path d="M263.071 416.135L288.526 384.932H311.699L287.886 416.135H263.071Z" fill="white" stroke="white" stroke-width="1.32067"/>
<path d="M990.47 375.192L965.014 343.985H941.84L965.654 375.192H990.47Z" fill="white" stroke="white" stroke-width="1.32067"/>
<path d="M954.523 375.192L929.067 343.985H905.893L929.707 375.192H954.523Z" fill="white" stroke="white" stroke-width="1.32067"/>
<path d="M920.284 375.192L894.827 343.985H871.654L895.467 375.192H920.284Z" fill="white" stroke="white" stroke-width="1.32067"/>
<path d="M32.3143 325.309C28.0484 325.309 24.1024 324.242 20.4764 322.109C16.8503 319.976 13.9709 317.097 11.8379 313.471C9.70495 309.845 8.63847 305.899 8.63847 301.633V290.915H33.4341V300.353H98.7025V280.197H32.3143C28.0484 280.197 24.1024 279.13 20.4764 276.997C16.8503 274.864 13.9709 272.038 11.8379 268.519C9.70495 264.893 8.63847 260.893 8.63847 256.521V233.805C8.63847 229.432 9.70495 225.486 11.8379 221.967C13.9709 218.341 16.8503 215.461 20.4764 213.328C24.1024 211.195 28.0484 210.129 32.3143 210.129H100.142C104.408 210.129 108.301 211.195 111.82 213.328C115.446 215.461 118.326 218.341 120.459 221.967C122.698 225.486 123.818 229.432 123.818 233.805V244.523H98.7025V235.085H33.4341V255.241H100.142C104.408 255.241 108.301 256.307 111.82 258.44C115.446 260.573 118.326 263.453 120.459 267.079C122.698 270.598 123.818 274.544 123.818 278.917V301.633C123.818 305.899 122.698 309.845 120.459 313.471C118.326 317.097 115.446 319.976 111.82 322.109C108.301 324.242 104.408 325.309 100.142 325.309H32.3143ZM319.451 325.309C315.185 325.309 311.239 324.242 307.613 322.109C303.987 319.976 301.107 317.097 298.975 313.471C296.842 309.845 295.775 305.899 295.775 301.633V210.129H320.571V300.353H385.839V210.129H410.955V301.633C410.955 305.899 409.835 309.845 407.595 313.471C405.462 317.097 402.583 319.976 398.957 322.109C395.437 324.242 391.545 325.309 387.279 325.309H319.451ZM430.171 325.309V210.129H443.289V325.309H430.171ZM526.133 325.309L459.425 210.129H474.622L533.652 312.671L592.521 210.129H607.719L541.17 325.309H526.133ZM617.608 325.309V229.326C617.608 225.806 618.461 222.607 620.168 219.727C621.874 216.741 624.167 214.395 627.046 212.689C630.033 210.982 633.285 210.129 636.805 210.129H713.591C717.11 210.129 720.31 210.982 723.189 212.689C726.176 214.395 728.522 216.741 730.228 219.727C731.934 222.607 732.788 225.806 732.788 229.326V325.309H719.83V283.236H630.566V325.309H617.608ZM630.566 270.278H719.83V229.326C719.83 227.619 719.19 226.179 717.91 225.006C716.737 223.727 715.297 223.087 713.591 223.087H636.805C635.098 223.087 633.605 223.727 632.325 225.006C631.152 226.179 630.566 227.619 630.566 229.326V270.278ZM796.446 325.309V223.087H745.255V210.129H860.435V223.087H809.404V325.309H796.446ZM872.559 325.309V210.129H885.517V261.16H977.501V210.129H990.618V325.309H977.501V274.278H885.517V325.309H872.559ZM1027.35 325.309C1023.83 325.309 1020.57 324.455 1017.59 322.749C1014.71 321.043 1012.41 318.75 1010.71 315.87C1009 312.884 1008.15 309.631 1008.15 306.112V229.326C1008.15 225.806 1009 222.607 1010.71 219.727C1012.41 216.741 1014.71 214.395 1017.59 212.689C1020.57 210.982 1023.83 210.129 1027.35 210.129H1104.13C1107.65 210.129 1110.85 210.982 1113.73 212.689C1116.72 214.395 1119.06 216.741 1120.77 219.727C1122.48 222.607 1123.33 225.806 1123.33 229.326V306.112C1123.33 309.631 1122.48 312.884 1120.77 315.87C1119.06 318.75 1116.72 321.043 1113.73 322.749C1110.85 324.455 1107.65 325.309 1104.13 325.309H1027.35ZM1027.35 312.351H1104.13C1105.84 312.351 1107.28 311.764 1108.45 310.591C1109.73 309.311 1110.37 307.818 1110.37 306.112V229.326C1110.37 227.619 1109.73 226.179 1108.45 225.006C1107.28 223.727 1105.84 223.087 1104.13 223.087H1027.35C1025.64 223.087 1024.15 223.727 1022.87 225.006C1021.69 226.179 1021.11 227.619 1021.11 229.326V306.112C1021.11 307.818 1021.69 309.311 1022.87 310.591C1024.15 311.764 1025.64 312.351 1027.35 312.351ZM1140.95 325.309V210.129H1158.7L1243.17 310.591V210.129H1256.12V325.309H1238.37L1153.9 224.846V325.309H1140.95Z" fill="white"/>
<path d="M175.158 205.921V199.53H184.288V194.965H190.679V200.443H188.853V196.791H186.114V201.356H176.984V204.095H189.766V205.921H175.158ZM193.418 200.443V194.965H203.462V196.791H195.244V200.443H193.418ZM175.158 233.312V215.051H170.593V208.66H190.679V215.051H181.549V222.356H184.288V217.791H190.679V222.356H193.418V217.791H202.549V201.356H199.809V205.921H195.244V208.66H199.809V215.051H194.331V213.225H197.983V210.486H193.418V204.095H197.983V199.53H204.375V219.617H195.244V224.182H188.853V219.617H186.114V224.182H179.723V213.225H188.853V210.486H172.419V213.225H176.984V231.486H180.636V233.312H175.158ZM166.028 218.704V204.095H171.506V205.921H167.854V218.704H166.028ZM170.593 246.094V240.616H175.158V237.877H166.028V228.747H156.898V213.225H163.289V222.356H172.419V232.399H170.593V224.182H161.463V215.051H158.724V226.921H167.854V236.051H176.984V242.442H172.419V246.094H170.593ZM184.288 232.399V228.747H180.636V226.921H186.114V232.399H184.288ZM179.723 291.744V274.397H175.158V269.832H172.419V274.397H166.028V269.832H158.724V283.527H152.333V278.962H147.768V274.397H138.638V268.006H143.203V263.441H147.768V260.702H138.638V254.311H147.768V249.746H152.333V245.181H156.898V242.442H152.333V231.486H163.289V245.181H167.854V251.572H163.289V263.441H166.028V254.311H179.723V251.572H175.158V245.181H179.723V236.051H186.114V241.529H184.288V237.877H181.549V247.007H176.984V249.746H181.549V256.137H167.854V265.267H161.463V249.746H166.028V247.007H161.463V233.312H154.159V240.616H158.724V247.007H154.159V251.572H149.594V256.137H140.464V258.876H149.594V265.267H145.029V269.832H140.464V272.571H149.594V277.136H154.159V281.701H156.898V268.006H167.854V272.571H170.593V268.006H176.984V272.571H181.549V291.744H179.723ZM152.333 260.702V255.224H154.159V258.876H156.898V250.659H158.724V260.702H152.333ZM170.593 264.354V258.876H176.984V264.354H175.158V260.702H172.419V264.354H170.593ZM153.246 265.267V263.441H157.811V265.267H153.246ZM148.681 269.832V268.006H153.246V269.832H148.681ZM156.898 306.352V299.961H166.028V297.222H156.898V290.831H175.158V278.962H163.289V286.266H170.593V283.527H166.941V281.701H172.419V288.092H161.463V277.136H176.984V292.657H158.724V295.396H167.854V301.787H158.724V304.526H162.376V306.352H156.898ZM152.333 296.309V286.266H157.811V288.092H154.159V296.309H152.333ZM184.288 291.744V287.179H186.114V291.744H184.288ZM166.941 306.352V304.526H179.723V295.396H185.201V297.222H181.549V306.352H166.941ZM170.593 301.787V296.309H172.419V299.961H175.158V296.309H176.984V301.787H170.593ZM185.201 301.787V299.961H189.766V301.787H185.201ZM193.418 324.613V313.656H197.983V310.917H193.418V306.352H186.114V310.917H176.984V315.483H170.593V310.917H167.854V318.222H176.071V320.048H166.028V309.091H172.419V313.656H175.158V309.091H184.288V304.526H195.244V309.091H199.809V315.483H195.244V322.787H202.549V320.048H198.896V318.222H204.375V324.613H193.418ZM161.463 319.135V310.917H157.811V309.091H163.289V319.135H161.463ZM185.201 320.048V318.222H188.853V310.004H190.679V320.048H185.201ZM202.549 314.57V310.004H204.375V314.57H202.549ZM179.723 319.135V313.656H185.201V315.483H181.549V319.135H179.723ZM176.071 329.178V327.352H179.723V324.613H166.941V322.787H181.549V329.178H176.071ZM184.288 332.83V322.787H190.679V332.83H188.853V324.613H186.114V332.83H184.288ZM194.331 333.743V331.917H197.983V327.352H204.375V332.83H202.549V329.178H199.809V333.743H194.331ZM237.948 241.529V233.312H233.383V224.182H224.253V217.791H228.818V213.225H233.383V208.66H237.948V205.921H230.644V210.486H219.688V205.921H215.123V199.53H219.688V196.791H216.036V194.965H221.514V201.356H216.949V204.095H221.514V208.66H228.818V204.095H239.774V210.486H235.209V215.051H230.644V219.617H226.079V222.356H235.209V231.486H239.774V241.529H237.948ZM224.253 201.356V195.878H226.079V199.53H228.818V194.965H239.774V200.443H237.948V196.791H230.644V201.356H224.253ZM242.513 228.747V219.617H239.774V227.834H237.948V217.791H244.339V226.921H247.078V222.356H256.208V219.617H251.643V213.225H256.208V210.486H251.643V205.921H248.904V215.051H242.513V199.53H247.991V201.356H244.339V213.225H247.078V204.095H253.469V208.66H258.034V215.051H253.469V217.791H258.034V224.182H248.904V228.747H242.513ZM215.123 215.051V209.573H216.949V213.225H225.166V215.051H215.123ZM260.773 223.269V214.138H262.599V223.269H260.773ZM216.036 219.617V217.791H220.601V219.617H216.036ZM247.991 251.572V249.746H260.773V240.616H265.338V228.747H262.599V233.312H256.208V228.747H253.469V233.312H248.904V236.051H261.686V237.877H247.078V231.486H251.643V226.921H258.034V231.486H260.773V226.921H267.164V242.442H262.599V251.572H247.991ZM242.513 236.964V232.399H244.339V236.964H242.513ZM237.948 251.572V246.094H239.774V249.746H242.513V240.616H248.904V245.181H252.556V247.007H247.078V242.442H244.339V251.572H237.948ZM252.556 242.442V240.616H257.121V242.442H252.556ZM266.251 251.572V249.746H269.903V247.007H266.251V245.181H271.729V251.572H266.251ZM269.903 260.702V256.137H238.861V254.311H271.729V258.876H279.033V256.137H275.381V254.311H280.859V260.702H269.903ZM256.208 310.917V288.092H251.643V278.962H244.339V290.831H247.078V282.614H248.904V292.657H242.513V277.136H253.469V286.266H258.034V309.091H260.773V299.961H265.338V297.222H260.773V290.831H265.338V283.527H256.208V277.136H260.773V272.571H279.033V265.267H265.338V260.702H262.599V265.267H253.469V268.006H275.381V269.832H251.643V263.441H260.773V258.876H267.164V263.441H280.859V274.397H262.599V278.962H258.034V281.701H267.164V292.657H262.599V295.396H267.164V301.787H262.599V310.917H256.208ZM252.556 260.702V258.876H257.121V260.702H252.556ZM247.078 268.919V260.702H243.426V258.876H248.904V268.919H247.078ZM237.948 291.744V272.571H242.513V268.919H244.339V274.397H239.774V291.744H237.948ZM252.556 274.397V272.571H257.121V274.397H252.556ZM266.251 278.962V277.136H270.816V278.962H266.251ZM242.513 301.787V297.222H239.774V300.874H237.948V295.396H244.339V299.961H251.643V291.744H253.469V301.787H242.513ZM225.166 310.917V309.091H233.383V296.309H235.209V310.917H225.166ZM225.166 306.352V304.526H229.731V306.352H225.166ZM247.078 324.613V318.222H251.643V315.483H247.078V310.917H242.513V306.352H238.861V304.526H244.339V309.091H248.904V313.656H253.469V320.048H248.904V322.787H252.556V324.613H247.078ZM251.643 310.004V305.439H253.469V310.004H251.643ZM216.036 310.917V309.091H220.601V310.917H216.036ZM224.253 333.743V327.352H228.818V322.787H238.861V324.613H230.644V329.178H226.079V331.917H233.383V327.352H242.513V315.483H239.774V320.048H228.818V315.483H226.079V320.048H219.688V315.483H216.949V327.352H219.688V323.7H221.514V329.178H215.123V313.656H221.514V318.222H224.253V313.656H230.644V318.222H237.948V313.656H244.339V329.178H235.209V333.743H224.253ZM256.208 319.135V313.656H261.686V315.483H258.034V319.135H256.208ZM216.036 333.743V331.917H220.601V333.743H216.036Z" fill="#68F9F6"/>
<path d="M183.977 119L153.122 34.2083H163.25L188.098 102.277L212.829 34.2083H224.37L249.219 102.277L273.832 34.2083H284.196L253.341 119H244.979L218.6 46.5738L192.22 119H183.977ZM294.643 119V34.2083H372.015V43.7474H304.182V71.7757H358.708V81.4326H304.182V109.461H372.015V119H294.643ZM384.69 119V34.0905H394.229V109.461H469.481V119H384.69ZM490.479 119C487.888 119 485.493 118.372 483.295 117.116C481.175 115.86 479.487 114.172 478.231 112.052C476.975 109.853 476.347 107.459 476.347 104.868V48.3403C476.347 45.7494 476.975 43.3941 478.231 41.2743C479.487 39.076 481.175 37.3487 483.295 36.0926C485.493 34.8364 487.888 34.2083 490.479 34.2083H560.903V43.7474H490.479C489.223 43.7474 488.124 44.2184 487.181 45.1606C486.318 46.0242 485.886 47.0841 485.886 48.3403V104.868C485.886 106.124 486.318 107.223 487.181 108.166C488.124 109.029 489.223 109.461 490.479 109.461H560.903V119H490.479ZM587.078 119C584.488 119 582.093 118.372 579.895 117.116C577.775 115.86 576.087 114.172 574.831 112.052C573.575 109.853 572.946 107.459 572.946 104.868V48.3403C572.946 45.7494 573.575 43.3941 574.831 41.2743C576.087 39.076 577.775 37.3487 579.895 36.0926C582.093 34.8364 584.488 34.2083 587.078 34.2083H643.606C646.197 34.2083 648.552 34.8364 650.672 36.0926C652.87 37.3487 654.598 39.076 655.854 41.2743C657.11 43.3941 657.738 45.7494 657.738 48.3403V104.868C657.738 107.459 657.11 109.853 655.854 112.052C654.598 114.172 652.87 115.86 650.672 117.116C648.552 118.372 646.197 119 643.606 119H587.078ZM587.078 109.461H643.606C644.862 109.461 645.922 109.029 646.786 108.166C647.728 107.223 648.199 106.124 648.199 104.868V48.3403C648.199 47.0841 647.728 46.0242 646.786 45.1606C645.922 44.2184 644.862 43.7474 643.606 43.7474H587.078C585.822 43.7474 584.723 44.2184 583.781 45.1606C582.917 46.0242 582.486 47.0841 582.486 48.3403V104.868C582.486 106.124 582.917 107.223 583.781 108.166C584.723 109.029 585.822 109.461 587.078 109.461ZM670.707 119V34.2083H683.779L718.991 76.1331L754.203 34.2083H767.275V119H757.736V45.0428L718.991 91.0894L680.246 45.0428V119H670.707ZM780.198 119V34.2083H857.571V43.7474H789.738V71.7757H844.263V81.4326H789.738V109.461H857.571V119H780.198ZM935.66 119V43.7474H897.975V34.2083H982.767V43.7474H945.199V119H935.66ZM1005.47 119C1002.88 119 1000.49 118.372 998.287 117.116C996.167 115.86 994.479 114.172 993.223 112.052C991.967 109.853 991.339 107.459 991.339 104.868V48.3403C991.339 45.7494 991.967 43.3941 993.223 41.2743C994.479 39.076 996.167 37.3487 998.287 36.0926C1000.49 34.8364 1002.88 34.2083 1005.47 34.2083H1062C1064.59 34.2083 1066.94 34.8364 1069.06 36.0926C1071.26 37.3487 1072.99 39.076 1074.25 41.2743C1075.5 43.3941 1076.13 45.7494 1076.13 48.3403V104.868C1076.13 107.459 1075.5 109.853 1074.25 112.052C1072.99 114.172 1071.26 115.86 1069.06 117.116C1066.94 118.372 1064.59 119 1062 119H1005.47ZM1005.47 109.461H1062C1063.25 109.461 1064.31 109.029 1065.18 108.166C1066.12 107.223 1066.59 106.124 1066.59 104.868V48.3403C1066.59 47.0841 1066.12 46.0242 1065.18 45.1606C1064.31 44.2184 1063.25 43.7474 1062 43.7474H1005.47C1004.21 43.7474 1003.12 44.2184 1002.17 45.1606C1001.31 46.0242 1000.88 47.0841 1000.88 48.3403V104.868C1000.88 106.124 1001.31 107.223 1002.17 108.166C1003.12 109.029 1004.21 109.461 1005.47 109.461Z" fill="white"/>
</svg>
