<svg width="2300" height="286" viewBox="0 0 2300 286" fill="none" xmlns="http://www.w3.org/2000/svg">
<path d="M46.0111 230C39.937 230 34.3185 228.481 29.1556 225.444C23.9926 222.407 19.8926 218.307 16.8556 213.144C13.8185 207.981 12.3 202.363 12.3 196.289V181.028H47.6056V194.467H140.539V165.767H46.0111C39.937 165.767 34.3185 164.248 29.1556 161.211C23.9926 158.174 19.8926 154.15 16.8556 149.139C13.8185 143.976 12.3 138.281 12.3 132.056V99.7111C12.3 93.4852 13.8185 87.8667 16.8556 82.8555C19.8926 77.6926 23.9926 73.5926 29.1556 70.5555C34.3185 67.5185 39.937 66 46.0111 66H142.589C148.663 66 154.206 67.5185 159.217 70.5555C164.38 73.5926 168.48 77.6926 171.517 82.8555C174.706 87.8667 176.3 93.4852 176.3 99.7111V114.972H140.539V101.533H47.6056V130.233H142.589C148.663 130.233 154.206 131.752 159.217 134.789C164.38 137.826 168.48 141.926 171.517 147.089C174.706 152.1 176.3 157.719 176.3 163.944V196.289C176.3 202.363 174.706 207.981 171.517 213.144C168.48 218.307 164.38 222.407 159.217 225.444C154.206 228.481 148.663 230 142.589 230H46.0111ZM454.854 230C448.78 230 443.162 228.481 437.999 225.444C432.836 222.407 428.736 218.307 425.699 213.144C422.662 207.981 421.143 202.363 421.143 196.289V66H456.449V194.467H549.382V66H585.143V196.289C585.143 202.363 583.549 207.981 580.36 213.144C577.323 218.307 573.223 222.407 568.06 225.444C563.049 228.481 557.506 230 551.432 230H454.854ZM612.505 230V66H631.183V230H612.505ZM749.142 230L654.158 66H675.797L759.847 212.006L843.669 66H865.308L770.553 230H749.142ZM879.39 230V93.3333C879.39 88.3222 880.604 83.7667 883.034 79.6667C885.464 75.4148 888.728 72.0741 892.828 69.6444C897.08 67.2148 901.712 66 906.723 66H1016.06C1021.07 66 1025.62 67.2148 1029.72 69.6444C1033.97 72.0741 1037.32 75.4148 1039.75 79.6667C1042.17 83.7667 1043.39 88.3222 1043.39 93.3333V230H1024.94V170.094H897.84V230H879.39ZM897.84 151.644H1024.94V93.3333C1024.94 90.9037 1024.03 88.8537 1022.21 87.1833C1020.54 85.3611 1018.49 84.45 1016.06 84.45H906.723C904.293 84.45 902.167 85.3611 900.345 87.1833C898.675 88.8537 897.84 90.9037 897.84 93.3333V151.644ZM1134.03 230V84.45H1061.14V66H1225.14V84.45H1152.48V230H1134.03ZM1242.41 230V66H1260.86V138.661H1391.83V66H1410.51V230H1391.83V157.339H1260.86V230H1242.41ZM1462.8 230C1457.79 230 1453.16 228.785 1448.91 226.356C1444.81 223.926 1441.54 220.661 1439.11 216.561C1436.68 212.309 1435.47 207.678 1435.47 202.667V93.3333C1435.47 88.3222 1436.68 83.7667 1439.11 79.6667C1441.54 75.4148 1444.81 72.0741 1448.91 69.6444C1453.16 67.2148 1457.79 66 1462.8 66H1572.13C1577.14 66 1581.7 67.2148 1585.8 69.6444C1590.05 72.0741 1593.39 75.4148 1595.82 79.6667C1598.25 83.7667 1599.47 88.3222 1599.47 93.3333V202.667C1599.47 207.678 1598.25 212.309 1595.82 216.561C1593.39 220.661 1590.05 223.926 1585.8 226.356C1581.7 228.785 1577.14 230 1572.13 230H1462.8ZM1462.8 211.55H1572.13C1574.56 211.55 1576.61 210.715 1578.28 209.044C1580.11 207.222 1581.02 205.096 1581.02 202.667V93.3333C1581.02 90.9037 1580.11 88.8537 1578.28 87.1833C1576.61 85.3611 1574.56 84.45 1572.13 84.45H1462.8C1460.37 84.45 1458.24 85.3611 1456.42 87.1833C1454.75 88.8537 1453.92 90.9037 1453.92 93.3333V202.667C1453.92 205.096 1454.75 207.222 1456.42 209.044C1458.24 210.715 1460.37 211.55 1462.8 211.55ZM1624.55 230V66H1649.83L1770.1 209.044V66H1788.55V230H1763.27L1643 86.9555V230H1624.55Z" fill="white"/>
<path d="M249.4 63.9396V54.8396H262.4V48.3396H271.5V56.1396H268.9V50.9396H265V57.4396H252V61.3396H270.2V63.9396H249.4ZM275.4 56.1396V48.3396H289.7V50.9396H278V56.1396H275.4ZM249.4 102.94V76.9396H242.9V67.8396H271.5V76.9396H258.5V87.3396H262.4V80.8396H271.5V87.3396H275.4V80.8396H288.4V57.4396H284.5V63.9396H278V67.8396H284.5V76.9396H276.7V74.3396H281.9V70.4396H275.4V61.3396H281.9V54.8396H291V83.4396H278V89.9396H268.9V83.4396H265V89.9396H255.9V74.3396H268.9V70.4396H245.5V74.3396H252V100.34H257.2V102.94H249.4ZM236.4 82.1396V61.3396H244.2V63.9396H239V82.1396H236.4ZM242.9 121.14V113.34H249.4V109.44H236.4V96.4396H223.4V74.3396H232.5V87.3396H245.5V101.64H242.9V89.9396H229.9V76.9396H226V93.8396H239V106.84H252V115.94H245.5V121.14H242.9ZM262.4 101.64V96.4396H257.2V93.8396H265V101.64H262.4ZM255.9 186.14V161.44H249.4V154.94H245.5V161.44H236.4V154.94H226V174.44H216.9V167.94H210.4V161.44H197.4V152.34H203.9V145.84H210.4V141.94H197.4V132.84H210.4V126.34H216.9V119.84H223.4V115.94H216.9V100.34H232.5V119.84H239V128.94H232.5V145.84H236.4V132.84H255.9V128.94H249.4V119.84H255.9V106.84H265V114.64H262.4V109.44H258.5V122.44H252V126.34H258.5V135.44H239V148.44H229.9V126.34H236.4V122.44H229.9V102.94H219.5V113.34H226V122.44H219.5V128.94H213V135.44H200V139.34H213V148.44H206.5V154.94H200V158.84H213V165.34H219.5V171.84H223.4V152.34H239V158.84H242.9V152.34H252V158.84H258.5V186.14H255.9ZM216.9 141.94V134.14H219.5V139.34H223.4V127.64H226V141.94H216.9ZM242.9 147.14V139.34H252V147.14H249.4V141.94H245.5V147.14H242.9ZM218.2 148.44V145.84H224.7V148.44H218.2ZM211.7 154.94V152.34H218.2V154.94H211.7ZM223.4 206.94V197.84H236.4V193.94H223.4V184.84H249.4V167.94H232.5V178.34H242.9V174.44H237.7V171.84H245.5V180.94H229.9V165.34H252V187.44H226V191.34H239V200.44H226V204.34H231.2V206.94H223.4ZM216.9 192.64V178.34H224.7V180.94H219.5V192.64H216.9ZM262.4 186.14V179.64H265V186.14H262.4ZM237.7 206.94V204.34H255.9V191.34H263.7V193.94H258.5V206.94H237.7ZM242.9 200.44V192.64H245.5V197.84H249.4V192.64H252V200.44H242.9ZM263.7 200.44V197.84H270.2V200.44H263.7ZM275.4 232.94V217.34H281.9V213.44H275.4V206.94H265V213.44H252V219.94H242.9V213.44H239V223.84H250.7V226.44H236.4V210.84H245.5V217.34H249.4V210.84H262.4V204.34H278V210.84H284.5V219.94H278V230.34H288.4V226.44H283.2V223.84H291V232.94H275.4ZM229.9 225.14V213.44H224.7V210.84H232.5V225.14H229.9ZM263.7 226.44V223.84H268.9V212.14H271.5V226.44H263.7ZM288.4 218.64V212.14H291V218.64H288.4ZM255.9 225.14V217.34H263.7V219.94H258.5V225.14H255.9ZM250.7 239.44V236.84H255.9V232.94H237.7V230.34H258.5V239.44H250.7ZM262.4 244.64V230.34H271.5V244.64H268.9V232.94H265V244.64H262.4ZM276.7 245.94V243.34H281.9V236.84H291V244.64H288.4V239.44H284.5V245.94H276.7ZM338.804 114.64V102.94H332.304V89.9396H319.304V80.8396H325.804V74.3396H332.304V67.8396H338.804V63.9396H328.404V70.4396H312.804V63.9396H306.304V54.8396H312.804V50.9396H307.604V48.3396H315.404V57.4396H308.904V61.3396H315.404V67.8396H325.804V61.3396H341.404V70.4396H334.904V76.9396H328.404V83.4396H321.904V87.3396H334.904V100.34H341.404V114.64H338.804ZM319.304 57.4396V49.6396H321.904V54.8396H325.804V48.3396H341.404V56.1396H338.804V50.9396H328.404V57.4396H319.304ZM345.304 96.4396V83.4396H341.404V95.1396H338.804V80.8396H347.904V93.8396H351.804V87.3396H364.804V83.4396H358.304V74.3396H364.804V70.4396H358.304V63.9396H354.404V76.9396H345.304V54.8396H353.104V57.4396H347.904V74.3396H351.804V61.3396H360.904V67.8396H367.404V76.9396H360.904V80.8396H367.404V89.9396H354.404V96.4396H345.304ZM306.304 76.9396V69.1396H308.904V74.3396H320.604V76.9396H306.304ZM371.304 88.6396V75.6396H373.904V88.6396H371.304ZM307.604 83.4396V80.8396H314.104V83.4396H307.604ZM353.104 128.94V126.34H371.304V113.34H377.804V96.4396H373.904V102.94H364.804V96.4396H360.904V102.94H354.404V106.84H372.604V109.44H351.804V100.34H358.304V93.8396H367.404V100.34H371.304V93.8396H380.404V115.94H373.904V128.94H353.104ZM345.304 108.14V101.64H347.904V108.14H345.304ZM338.804 128.94V121.14H341.404V126.34H345.304V113.34H354.404V119.84H359.604V122.44H351.804V115.94H347.904V128.94H338.804ZM359.604 115.94V113.34H366.104V115.94H359.604ZM379.104 128.94V126.34H384.304V122.44H379.104V119.84H386.904V128.94H379.104ZM384.304 141.94V135.44H340.104V132.84H386.904V139.34H397.304V135.44H392.104V132.84H399.904V141.94H384.304ZM364.804 213.44V180.94H358.304V167.94H347.904V184.84H351.804V173.14H354.404V187.44H345.304V165.34H360.904V178.34H367.404V210.84H371.304V197.84H377.804V193.94H371.304V184.84H377.804V174.44H364.804V165.34H371.304V158.84H397.304V148.44H377.804V141.94H373.904V148.44H360.904V152.34H392.104V154.94H358.304V145.84H371.304V139.34H380.404V145.84H399.904V161.44H373.904V167.94H367.404V171.84H380.404V187.44H373.904V191.34H380.404V200.44H373.904V213.44H364.804ZM359.604 141.94V139.34H366.104V141.94H359.604ZM351.804 153.64V141.94H346.604V139.34H354.404V153.64H351.804ZM338.804 186.14V158.84H345.304V153.64H347.904V161.44H341.404V186.14H338.804ZM359.604 161.44V158.84H366.104V161.44H359.604ZM379.104 167.94V165.34H385.604V167.94H379.104ZM345.304 200.44V193.94H341.404V199.14H338.804V191.34H347.904V197.84H358.304V186.14H360.904V200.44H345.304ZM320.604 213.44V210.84H332.304V192.64H334.904V213.44H320.604ZM320.604 206.94V204.34H327.104V206.94H320.604ZM351.804 232.94V223.84H358.304V219.94H351.804V213.44H345.304V206.94H340.104V204.34H347.904V210.84H354.404V217.34H360.904V226.44H354.404V230.34H359.604V232.94H351.804ZM358.304 212.14V205.64H360.904V212.14H358.304ZM307.604 213.44V210.84H314.104V213.44H307.604ZM319.304 245.94V236.84H325.804V230.34H340.104V232.94H328.404V239.44H321.904V243.34H332.304V236.84H345.304V219.94H341.404V226.44H325.804V219.94H321.904V226.44H312.804V219.94H308.904V236.84H312.804V231.64H315.404V239.44H306.304V217.34H315.404V223.84H319.304V217.34H328.404V223.84H338.804V217.34H347.904V239.44H334.904V245.94H319.304ZM364.804 225.14V217.34H372.604V219.94H367.404V225.14H364.804ZM307.604 245.94V243.34H314.104V245.94H307.604Z" fill="#68F9F6"/>
</svg>
