<svg width="1623" height="543" viewBox="0 0 1623 543" fill="none" xmlns="http://www.w3.org/2000/svg">
<path d="M95.6749 447.792H1.62889L47.8305 398.143H95.6749H162.425H226.997L190.988 447.792H95.6749Z" fill="white" stroke="white" stroke-width="1.41856"/>
<path d="M779.815 369.45L732.112 369.768L775.564 419.427H825.964H957.548L920.994 369.45H825.964H779.817H779.815Z" fill="white" stroke="white" stroke-width="1.41856"/>
<path d="M219.876 403.15H372.067L431.242 374.742H755.79" stroke="white" stroke-width="11.3485"/>
<path d="M949.748 414.668H1358.98" stroke="white" stroke-width="11.3485"/>
<path d="M207.184 447.261L234.527 413.744H259.417L233.839 447.261H207.184Z" fill="white" stroke="white" stroke-width="1.41856"/>
<path d="M245.793 447.261L273.135 413.744H298.026L272.447 447.261H245.793Z" fill="white" stroke="white" stroke-width="1.41856"/>
<path d="M282.571 447.261L309.913 413.744H334.803L309.225 447.261H282.571Z" fill="white" stroke="white" stroke-width="1.41856"/>
<path d="M1063.89 403.288L1036.54 369.768H1011.65L1037.23 403.288H1063.89Z" fill="white" stroke="white" stroke-width="1.41856"/>
<path d="M1025.28 403.288L997.932 369.768H973.041L998.62 403.288H1025.28Z" fill="white" stroke="white" stroke-width="1.41856"/>
<path d="M988.498 403.288L961.155 369.768H936.263L961.842 403.288H988.498Z" fill="white" stroke="white" stroke-width="1.41856"/>
<path d="M34.7095 348.695C30.1274 348.695 25.8889 347.55 21.9941 345.259C18.0993 342.968 15.0064 339.875 12.7154 335.98C10.4243 332.085 9.27878 327.847 9.27878 323.265V311.752H35.9123V321.89H106.019V300.239H34.7095C30.1274 300.239 25.8889 299.094 21.9941 296.803C18.0993 294.512 15.0064 291.476 12.7154 287.696C10.4243 283.801 9.27878 279.505 9.27878 274.809V250.409C9.27878 245.712 10.4243 241.474 12.7154 237.694C15.0064 233.799 18.0993 230.706 21.9941 228.415C25.8889 226.124 30.1274 224.978 34.7095 224.978H107.565C112.147 224.978 116.328 226.124 120.109 228.415C124.003 230.706 127.096 233.799 129.387 237.694C131.793 241.474 132.996 245.712 132.996 250.409V261.922H106.019V251.784H35.9123V273.434H107.565C112.147 273.434 116.328 274.58 120.109 276.871C124.003 279.162 127.096 282.255 129.387 286.149C131.793 289.93 132.996 294.168 132.996 298.865V323.265C132.996 327.847 131.793 332.085 129.387 335.98C127.096 339.875 124.003 342.968 120.109 345.259C116.328 347.55 112.147 348.695 107.565 348.695H34.7095ZM343.13 348.695C338.547 348.695 334.309 347.55 330.414 345.259C326.519 342.968 323.426 339.875 321.135 335.98C318.844 332.085 317.699 327.847 317.699 323.265V224.978H344.332V321.89H414.439V224.978H441.416V323.265C441.416 327.847 440.213 332.085 437.807 335.98C435.516 339.875 432.423 342.968 428.529 345.259C424.748 347.55 420.567 348.695 415.985 348.695H343.13ZM462.057 348.695V224.978H476.147V348.695H462.057ZM565.132 348.695L493.479 224.978H509.803L573.208 335.121L636.441 224.978H652.765L581.284 348.695H565.132ZM663.387 348.695V245.598C663.387 241.818 664.303 238.381 666.136 235.288C667.969 232.081 670.432 229.56 673.525 227.728C676.732 225.895 680.226 224.978 684.007 224.978H766.485C770.265 224.978 773.701 225.895 776.794 227.728C780.002 229.56 782.522 232.081 784.355 235.288C786.188 238.381 787.104 241.818 787.104 245.598V348.695H773.186V303.504H677.305V348.695H663.387ZM677.305 289.586H773.186V245.598C773.186 243.765 772.499 242.218 771.124 240.958C769.864 239.584 768.317 238.896 766.485 238.896H684.007C682.174 238.896 680.57 239.584 679.195 240.958C677.935 242.218 677.305 243.765 677.305 245.598V289.586ZM855.481 348.695V238.896H800.496V224.978H924.213V238.896H869.4V348.695H855.481ZM937.236 348.695V224.978H951.154V279.792H1049.96V224.978H1064.05V348.695H1049.96V293.882H951.154V348.695H937.236ZM1103.5 348.695C1099.72 348.695 1096.22 347.779 1093.01 345.946C1089.92 344.113 1087.46 341.65 1085.63 338.557C1083.79 335.35 1082.88 331.856 1082.88 328.076V245.598C1082.88 241.818 1083.79 238.381 1085.63 235.288C1087.46 232.081 1089.92 229.56 1093.01 227.728C1096.22 225.895 1099.72 224.978 1103.5 224.978H1185.97C1189.75 224.978 1193.19 225.895 1196.28 227.728C1199.49 229.56 1202.01 232.081 1203.84 235.288C1205.68 238.381 1206.59 241.818 1206.59 245.598V328.076C1206.59 331.856 1205.68 335.35 1203.84 338.557C1202.01 341.65 1199.49 344.113 1196.28 345.946C1193.19 347.779 1189.75 348.695 1185.97 348.695H1103.5ZM1103.5 334.777H1185.97C1187.81 334.777 1189.35 334.147 1190.61 332.887C1191.99 331.512 1192.67 329.909 1192.67 328.076V245.598C1192.67 243.765 1191.99 242.218 1190.61 240.958C1189.35 239.584 1187.81 238.896 1185.97 238.896H1103.5C1101.66 238.896 1100.06 239.584 1098.68 240.958C1097.42 242.218 1096.79 243.765 1096.79 245.598V328.076C1096.79 329.909 1097.42 331.512 1098.68 332.887C1100.06 334.147 1101.66 334.777 1103.5 334.777ZM1225.52 348.695V224.978H1244.59L1335.31 332.887V224.978H1349.23V348.695H1330.16L1239.43 240.787V348.695H1225.52Z" fill="white"/>
<path d="M188.141 221.943V215.078H197.948V210.175H204.813V216.059H202.852V212.136H199.91V217.04H190.103V219.982H203.832V221.943H188.141ZM207.755 216.059V210.175H218.543V212.136H209.717V216.059H207.755ZM188.141 251.364V231.75H183.238V224.885H204.813V231.75H195.006V239.595H197.948V234.692H204.813V239.595H207.755V234.692H217.562V217.04H214.62V221.943H209.717V224.885H214.62V231.75H208.736V229.789H212.659V226.847H207.755V219.982H212.659V215.078H219.523V236.653H209.717V241.557H202.852V236.653H199.91V241.557H193.045V229.789H202.852V226.847H185.199V229.789H190.103V249.402H194.026V251.364H188.141ZM178.335 235.673V219.982H184.219V221.943H180.296V235.673H178.335ZM183.238 265.093V259.209H188.141V256.267H178.335V246.46H168.528V229.789H175.393V239.595H185.199V250.383H183.238V241.557H173.431V231.75H170.489V244.499H180.296V254.306H190.103V261.171H185.199V265.093H183.238ZM197.948 250.383V246.46H194.026V244.499H199.91V250.383H197.948ZM193.045 314.127V295.494H188.141V290.591H185.199V295.494H178.335V290.591H170.489V305.301H163.624V300.398H158.721V295.494H148.914V288.63H153.818V283.726H158.721V280.784H148.914V273.919H158.721V269.016H163.624V264.113H168.528V261.171H163.624V249.402H175.393V264.113H180.296V270.977H175.393V283.726H178.335V273.919H193.045V270.977H188.141V264.113H193.045V254.306H199.91V260.19H197.948V256.267H195.006V266.074H190.103V269.016H195.006V275.881H180.296V285.688H173.431V269.016H178.335V266.074H173.431V251.364H165.586V259.209H170.489V266.074H165.586V270.977H160.682V275.881H150.875V278.823H160.682V285.688H155.779V290.591H150.875V293.533H160.682V298.437H165.586V303.34H168.528V288.63H180.296V293.533H183.238V288.63H190.103V293.533H195.006V314.127H193.045ZM163.624 280.784V274.9H165.586V278.823H168.528V269.997H170.489V280.784H163.624ZM183.238 284.707V278.823H190.103V284.707H188.141V280.784H185.199V284.707H183.238ZM164.605 285.688V283.726H169.508V285.688H164.605ZM159.702 290.591V288.63H164.605V290.591H159.702ZM168.528 329.818V322.954H178.335V320.012H168.528V313.147H188.141V300.398H175.393V308.243H183.238V305.301H179.315V303.34H185.199V310.205H173.431V298.437H190.103V315.108H170.489V318.05H180.296V324.915H170.489V327.857H174.412V329.818H168.528ZM163.624 319.031V308.243H169.508V310.205H165.586V319.031H163.624ZM197.948 314.127V309.224H199.91V314.127H197.948ZM179.315 329.818V327.857H193.045V318.05H198.929V320.012H195.006V329.818H179.315ZM183.238 324.915V319.031H185.199V322.954H188.141V319.031H190.103V324.915H183.238ZM198.929 324.915V322.954H203.832V324.915H198.929ZM207.755 349.432V337.664H212.659V334.722H207.755V329.818H199.91V334.722H190.103V339.625H183.238V334.722H180.296V342.567H189.122V344.529H178.335V332.76H185.199V337.664H188.141V332.76H197.948V327.857H209.717V332.76H214.62V339.625H209.717V347.471H217.562V344.529H213.639V342.567H219.523V349.432H207.755ZM173.431 343.548V334.722H169.508V332.76H175.393V343.548H173.431ZM198.929 344.529V342.567H202.852V333.741H204.813V344.529H198.929ZM217.562 338.645V333.741H219.523V338.645H217.562ZM193.045 343.548V337.664H198.929V339.625H195.006V343.548H193.045ZM189.122 354.336V352.374H193.045V349.432H179.315V347.471H195.006V354.336H189.122ZM197.948 358.258V347.471H204.813V358.258H202.852V349.432H199.91V358.258H197.948ZM208.736 359.239V357.278H212.659V352.374H219.523V358.258H217.562V354.336H214.62V359.239H208.736ZM255.585 260.19V251.364H250.682V241.557H240.875V234.692H245.778V229.789H250.682V224.885H255.585V221.943H247.74V226.847H235.972V221.943H231.068V215.078H235.972V212.136H232.049V210.175H237.933V217.04H233.03V219.982H237.933V224.885H245.778V219.982H257.547V226.847H252.643V231.75H247.74V236.653H242.836V239.595H252.643V249.402H257.547V260.19H255.585ZM240.875 217.04V211.156H242.836V215.078H245.778V210.175H257.547V216.059H255.585V212.136H247.74V217.04H240.875ZM260.489 246.46V236.653H257.547V245.48H255.585V234.692H262.45V244.499H265.392V239.595H275.199V236.653H270.296V229.789H275.199V226.847H270.296V221.943H267.353V231.75H260.489V215.078H266.373V217.04H262.45V229.789H265.392V219.982H272.257V224.885H277.16V231.75H272.257V234.692H277.16V241.557H267.353V246.46H260.489ZM231.068 231.75V225.866H233.03V229.789H241.856V231.75H231.068ZM280.102 240.576V230.769H282.064V240.576H280.102ZM232.049 236.653V234.692H236.952V236.653H232.049ZM266.373 270.977V269.016H280.102V259.209H285.006V246.46H282.064V251.364H275.199V246.46H272.257V251.364H267.353V254.306H281.083V256.267H265.392V249.402H270.296V244.499H277.16V249.402H280.102V244.499H286.967V261.171H282.064V270.977H266.373ZM260.489 255.286V250.383H262.45V255.286H260.489ZM255.585 270.977V265.093H257.547V269.016H260.489V259.209H267.353V264.113H271.276V266.074H265.392V261.171H262.45V270.977H255.585ZM271.276 261.171V259.209H276.18V261.171H271.276ZM285.986 270.977V269.016H289.909V266.074H285.986V264.113H291.871V270.977H285.986ZM289.909 280.784V275.881H256.566V273.919H291.871V278.823H299.716V275.881H295.793V273.919H301.677V280.784H289.909ZM275.199 334.722V310.205H270.296V300.398H262.45V313.147H265.392V304.321H267.353V315.108H260.489V298.437H272.257V308.243H277.16V332.76H280.102V322.954H285.006V320.012H280.102V313.147H285.006V305.301H275.199V298.437H280.102V293.533H299.716V285.688H285.006V280.784H282.064V285.688H272.257V288.63H295.793V290.591H270.296V283.726H280.102V278.823H286.967V283.726H301.677V295.494H282.064V300.398H277.16V303.34H286.967V315.108H282.064V318.05H286.967V324.915H282.064V334.722H275.199ZM271.276 280.784V278.823H276.18V280.784H271.276ZM265.392 289.61V280.784H261.469V278.823H267.353V289.61H265.392ZM255.585 314.127V293.533H260.489V289.61H262.45V295.494H257.547V314.127H255.585ZM271.276 295.494V293.533H276.18V295.494H271.276ZM285.986 300.398V298.437H290.89V300.398H285.986ZM260.489 324.915V320.012H257.547V323.934H255.585V318.05H262.45V322.954H270.296V314.127H272.257V324.915H260.489ZM241.856 334.722V332.76H250.682V319.031H252.643V334.722H241.856ZM241.856 329.818V327.857H246.759V329.818H241.856ZM265.392 349.432V342.567H270.296V339.625H265.392V334.722H260.489V329.818H256.566V327.857H262.45V332.76H267.353V337.664H272.257V344.529H267.353V347.471H271.276V349.432H265.392ZM270.296 333.741V328.838H272.257V333.741H270.296ZM232.049 334.722V332.76H236.952V334.722H232.049ZM240.875 359.239V352.374H245.778V347.471H256.566V349.432H247.74V354.336H242.836V357.278H250.682V352.374H260.489V339.625H257.547V344.529H245.778V339.625H242.836V344.529H235.972V339.625H233.03V352.374H235.972V348.451H237.933V354.336H231.068V337.664H237.933V342.567H240.875V337.664H247.74V342.567H255.585V337.664H262.45V354.336H252.643V359.239H240.875ZM275.199 343.548V337.664H281.083V339.625H277.16V343.548H275.199ZM232.049 359.239V357.278H236.952V359.239H232.049Z" fill="#68F9F6"/>
<path d="M197.613 128.277L164.471 37.2006H175.35L202.04 110.315L228.604 37.2006H241.001L267.692 110.315L294.129 37.2006H305.261L272.119 128.277H263.138L234.803 50.4827L206.468 128.277H197.613ZM316.482 128.277V37.2006H399.59V47.4468H326.728V77.5527H385.296V87.9253H326.728V118.031H399.59V128.277H316.482ZM413.204 128.277V37.0741H423.45V118.031H504.28V128.277H413.204ZM526.834 128.277C524.051 128.277 521.479 127.603 519.118 126.253C516.841 124.904 515.028 123.091 513.679 120.814C512.329 118.453 511.655 115.881 511.655 113.098V52.3801C511.655 49.5972 512.329 47.0673 513.679 44.7904C515.028 42.4291 516.841 40.5739 519.118 39.2246C521.479 37.8753 524.051 37.2006 526.834 37.2006H602.478V47.4468H526.834C525.485 47.4468 524.304 47.9527 523.292 48.9647C522.365 49.8923 521.901 51.0308 521.901 52.3801V113.098C521.901 114.447 522.365 115.628 523.292 116.64C524.304 117.567 525.485 118.031 526.834 118.031H602.478V128.277H526.834ZM630.594 128.277C627.811 128.277 625.239 127.603 622.878 126.253C620.601 124.904 618.788 123.091 617.439 120.814C616.089 118.453 615.415 115.881 615.415 113.098V52.3801C615.415 49.5972 616.089 47.0673 617.439 44.7904C618.788 42.4291 620.601 40.5739 622.878 39.2246C625.239 37.8753 627.811 37.2006 630.594 37.2006H691.312C694.095 37.2006 696.625 37.8753 698.902 39.2246C701.263 40.5739 703.118 42.4291 704.467 44.7904C705.817 47.0673 706.491 49.5972 706.491 52.3801V113.098C706.491 115.881 705.817 118.453 704.467 120.814C703.118 123.091 701.263 124.904 698.902 126.253C696.625 127.603 694.095 128.277 691.312 128.277H630.594ZM630.594 118.031H691.312C692.661 118.031 693.8 117.567 694.727 116.64C695.739 115.628 696.245 114.447 696.245 113.098V52.3801C696.245 51.0308 695.739 49.8923 694.727 48.9647C693.8 47.9527 692.661 47.4468 691.312 47.4468H630.594C629.245 47.4468 628.064 47.9527 627.052 48.9647C626.125 49.8923 625.661 51.0308 625.661 52.3801V113.098C625.661 114.447 626.125 115.628 627.052 116.64C628.064 117.567 629.245 118.031 630.594 118.031ZM720.422 128.277V37.2006H734.463L772.285 82.233L810.107 37.2006H824.148V128.277H813.902V48.8382L772.285 98.2979L730.668 48.8382V128.277H720.422ZM838.029 128.277V37.2006H921.136V47.4468H848.275V77.5527H906.842V87.9253H848.275V118.031H921.136V128.277H838.029ZM1005.01 128.277V47.4468H964.535V37.2006H1055.61V47.4468H1015.26V128.277H1005.01ZM1080 128.277C1077.22 128.277 1074.64 127.603 1072.28 126.253C1070.01 124.904 1068.19 123.091 1066.84 120.814C1065.49 118.453 1064.82 115.881 1064.82 113.098V52.3801C1064.82 49.5972 1065.49 47.0673 1066.84 44.7904C1068.19 42.4291 1070.01 40.5739 1072.28 39.2246C1074.64 37.8753 1077.22 37.2006 1080 37.2006H1140.72C1143.5 37.2006 1146.03 37.8753 1148.31 39.2246C1150.67 40.5739 1152.52 42.4291 1153.87 44.7904C1155.22 47.0673 1155.9 49.5972 1155.9 52.3801V113.098C1155.9 115.881 1155.22 118.453 1153.87 120.814C1152.52 123.091 1150.67 124.904 1148.31 126.253C1146.03 127.603 1143.5 128.277 1140.72 128.277H1080ZM1080 118.031H1140.72C1142.07 118.031 1143.2 117.567 1144.13 116.64C1145.14 115.628 1145.65 114.447 1145.65 113.098V52.3801C1145.65 51.0308 1145.14 49.8923 1144.13 48.9647C1143.2 47.9527 1142.07 47.4468 1140.72 47.4468H1080C1078.65 47.4468 1077.47 47.9527 1076.46 48.9647C1075.53 49.8923 1075.07 51.0308 1075.07 52.3801V113.098C1075.07 114.447 1075.53 115.628 1076.46 116.64C1077.47 117.567 1078.65 118.031 1080 118.031Z" fill="white"/>
<path d="M466.332 479.297V454.128L465.837 450.165H473.367L484.565 469.982L496.158 450.165H502.847V479.297H496.307V460.817H495.762L493.829 465.127L487.587 476.324H481.592L475.349 465.127L473.367 460.817H472.872V479.297H466.332ZM516.334 479.297C514.716 479.297 513.444 479.082 512.519 478.653C511.627 478.223 510.983 477.678 510.587 477.018C510.223 476.357 509.992 475.664 509.893 474.937C509.827 474.21 509.794 473.55 509.794 472.955V457.101H515.839V473.054C515.806 473.781 516.037 474.293 516.532 474.59C517.061 474.887 517.622 475.036 518.217 475.036H528.027C528.753 475.036 529.183 474.97 529.315 474.838C529.447 474.706 529.513 474.276 529.513 473.55V457.101H535.557V479.297H531.495L529.612 478.306C528.291 478.57 526.722 478.801 524.905 479C523.122 479.198 521.107 479.297 518.861 479.297H516.334ZM541.981 479.297V451.849L541.485 447.885H548.025V479.297H541.981ZM562.589 479.297C560.079 479.297 558.361 478.768 557.436 477.711C556.512 476.654 556.049 475.069 556.049 472.955V461.362H551.987V457.101H554.067C554.695 457.101 555.141 457.002 555.405 456.804C555.702 456.605 555.917 456.209 556.049 455.614L557.04 450.313H562.094V457.101H572.399V461.362H562.094V473.005C562.094 473.83 562.292 474.375 562.688 474.64C563.085 474.904 563.679 475.036 564.472 475.036H571.458L571.953 478.801C571.259 478.901 570.202 479.016 568.782 479.148C567.362 479.247 565.81 479.297 564.125 479.297H562.589ZM579.888 453.979C578.666 453.979 577.774 453.732 577.212 453.236C576.651 452.741 576.37 451.915 576.37 450.759C576.37 449.57 576.634 448.744 577.163 448.282C577.724 447.786 578.632 447.539 579.888 447.539C581.143 447.539 582.051 447.786 582.613 448.282C583.174 448.744 583.455 449.57 583.455 450.759C583.455 451.882 583.174 452.708 582.613 453.236C582.051 453.732 581.143 453.979 579.888 453.979ZM576.865 479.297V457.101H582.91V479.297H576.865ZM595.43 479.297C593.778 479.297 592.506 479.082 591.615 478.653C590.723 478.223 590.079 477.678 589.682 477.018C589.319 476.357 589.088 475.664 588.989 474.937C588.923 474.21 588.89 473.55 588.89 472.955V463.443C588.89 462.947 588.923 462.353 588.989 461.659C589.088 460.932 589.319 460.222 589.682 459.528C590.079 458.835 590.723 458.257 591.615 457.794C592.539 457.332 593.811 457.101 595.43 457.101H597.956C600.995 457.101 603.439 457.167 605.289 457.299C607.172 457.398 608.608 457.514 609.599 457.646V447.885H615.644V479.297H611.581L609.649 478.306C608.262 478.537 606.594 478.768 604.645 479C602.696 479.198 600.45 479.297 597.907 479.297H595.43ZM597.312 475.036H608.064C608.757 475.036 609.187 474.953 609.352 474.788C609.517 474.623 609.599 474.21 609.599 473.55V461.708C608.476 461.642 607.056 461.576 605.339 461.51C603.621 461.411 601.788 461.362 599.839 461.362H597.312C595.727 461.362 594.934 462.022 594.934 463.343V473.054C594.934 474.375 595.727 475.036 597.312 475.036ZM625.61 453.979C624.388 453.979 623.496 453.732 622.935 453.236C622.373 452.741 622.092 451.915 622.092 450.759C622.092 449.57 622.357 448.744 622.885 448.282C623.447 447.786 624.355 447.539 625.61 447.539C626.865 447.539 627.774 447.786 628.335 448.282C628.897 448.744 629.177 449.57 629.177 450.759C629.177 451.882 628.897 452.708 628.335 453.236C627.774 453.732 626.865 453.979 625.61 453.979ZM622.588 479.297V457.101H628.632V479.297H622.588ZM640.706 479.297C638.493 479.297 636.924 479.181 635.999 478.95C635.075 478.719 634.612 478.488 634.612 478.256L636.099 474.541C637.056 474.64 638.807 474.755 641.35 474.887C643.927 474.986 647.097 475.036 650.863 475.036H653.34C654.166 475.036 654.678 474.821 654.876 474.392C655.107 473.93 655.223 473.318 655.223 472.559C655.223 471.799 655.091 471.188 654.826 470.726C654.595 470.263 654.1 470.032 653.34 470.032H641.152C638.84 470.032 637.172 469.603 636.148 468.744C635.124 467.852 634.612 466.531 634.612 464.78V462.798C634.612 462.336 634.662 461.791 634.761 461.163C634.86 460.536 635.108 459.908 635.504 459.281C635.9 458.653 636.544 458.141 637.436 457.745C638.328 457.315 639.567 457.101 641.152 457.101H654.826C656.808 457.101 658.212 457.216 659.038 457.448C659.863 457.679 660.276 457.91 660.276 458.141L659.781 461.857C658.823 461.758 657.056 461.659 654.48 461.56C651.903 461.428 648.749 461.362 645.017 461.362H642.539C641.714 461.362 641.185 461.593 640.954 462.055C640.756 462.485 640.657 462.997 640.657 463.591C640.657 464.219 640.756 464.747 640.954 465.177C641.185 465.573 641.714 465.771 642.539 465.771H654.727C656.973 465.771 658.625 466.234 659.682 467.158C660.739 468.083 661.267 469.256 661.267 470.676V473.599C661.267 474.194 661.218 474.821 661.119 475.482C661.053 476.143 660.821 476.77 660.425 477.365C660.029 477.926 659.385 478.389 658.493 478.752C657.601 479.115 656.346 479.297 654.727 479.297H640.706ZM672.747 479.297C671.095 479.297 669.823 479.082 668.932 478.653C668.04 478.223 667.396 477.678 666.999 477.018C666.636 476.357 666.405 475.664 666.306 474.937C666.24 474.21 666.207 473.55 666.207 472.955V463.443C666.207 462.947 666.24 462.353 666.306 461.659C666.405 460.932 666.636 460.222 666.999 459.528C667.396 458.835 668.04 458.257 668.932 457.794C669.856 457.332 671.128 457.101 672.747 457.101H679.633C683.762 457.101 686.685 457.216 688.403 457.448C690.153 457.646 691.029 457.86 691.029 458.092L690.038 461.857C689.113 461.791 687.94 461.725 686.52 461.659C685.1 461.56 683.564 461.494 681.912 461.461C680.294 461.395 678.708 461.362 677.156 461.362H674.629C673.044 461.362 672.251 462.022 672.251 463.343V473.054C672.218 474.375 673.011 475.036 674.629 475.036H677.156C678.94 475.036 680.674 475.02 682.358 474.986C684.076 474.92 685.645 474.854 687.065 474.788C688.485 474.689 689.625 474.607 690.484 474.541L692.465 477.761C692.465 478.785 689.212 479.297 682.705 479.297H672.747ZM699.443 453.979C698.221 453.979 697.33 453.732 696.768 453.236C696.207 452.741 695.926 451.915 695.926 450.759C695.926 449.57 696.19 448.744 696.719 448.282C697.28 447.786 698.188 447.539 699.443 447.539C700.699 447.539 701.607 447.786 702.168 448.282C702.73 448.744 703.011 449.57 703.011 450.759C703.011 451.882 702.73 452.708 702.168 453.236C701.607 453.732 700.699 453.979 699.443 453.979ZM696.421 479.297V457.101H702.466V479.297H696.421ZM708.941 488.512V457.101H713.004L714.242 457.745C715.729 457.58 717.496 457.431 719.544 457.299C721.624 457.167 723.986 457.101 726.628 457.101H729.155C730.807 457.101 732.078 457.315 732.97 457.745C733.862 458.174 734.49 458.719 734.853 459.38C735.249 460.04 735.48 460.734 735.547 461.461C735.646 462.187 735.695 462.848 735.695 463.443V472.955C735.695 473.451 735.646 474.062 735.547 474.788C735.48 475.482 735.249 476.176 734.853 476.869C734.49 477.563 733.862 478.141 732.97 478.603C732.078 479.066 730.807 479.297 729.155 479.297H726.628C724.118 479.297 721.889 479.231 719.94 479.099C717.991 478.967 716.34 478.834 714.985 478.702V488.512H708.941ZM716.521 475.036H727.273C727.9 475.036 728.445 474.871 728.908 474.541C729.403 474.21 729.651 473.715 729.651 473.054V463.343C729.684 462.617 729.502 462.105 729.106 461.808C728.742 461.51 728.131 461.362 727.273 461.362H724.795C722.681 461.362 720.799 461.411 719.147 461.51C717.529 461.576 716.141 461.659 714.985 461.758V473.5C714.985 474.227 715.052 474.673 715.184 474.838C715.349 474.97 715.795 475.036 716.521 475.036ZM741.66 479.297V451.849L741.164 447.885H747.704V479.297H741.66ZM757.165 453.979C755.943 453.979 755.051 453.732 754.49 453.236C753.928 452.741 753.647 451.915 753.647 450.759C753.647 449.57 753.912 448.744 754.44 448.282C755.002 447.786 755.91 447.539 757.165 447.539C758.42 447.539 759.329 447.786 759.89 448.282C760.452 448.744 760.732 449.57 760.732 450.759C760.732 451.882 760.452 452.708 759.89 453.236C759.329 453.732 758.42 453.979 757.165 453.979ZM754.143 479.297V457.101H760.187V479.297H754.143ZM766.663 479.297V457.101H770.725L772.707 458.092C774.094 457.827 775.762 457.596 777.711 457.398C779.66 457.2 781.889 457.101 784.4 457.101H786.877C788.528 457.101 789.8 457.332 790.692 457.794C791.584 458.257 792.211 458.835 792.575 459.528C792.971 460.222 793.202 460.932 793.268 461.659C793.367 462.353 793.417 462.947 793.417 463.443V479.297H787.372V463.343C787.372 462.022 786.58 461.362 784.994 461.362H774.193C773.566 461.362 773.153 461.428 772.955 461.56C772.79 461.659 772.707 461.956 772.707 462.452V479.297H766.663ZM805.519 479.297C803.009 479.297 801.192 478.719 800.069 477.563C798.946 476.374 798.385 474.755 798.385 472.707C798.385 470.56 798.963 468.909 800.119 467.753C801.308 466.597 803.108 466.019 805.519 466.019H808.046C810.523 466.019 812.753 466.085 814.735 466.217C816.716 466.349 818.351 466.481 819.64 466.613V463.343C819.64 463.046 819.607 462.749 819.54 462.452C819.474 462.121 819.276 461.857 818.946 461.659C818.616 461.461 818.054 461.362 817.261 461.362H814.784C811.184 461.362 808.178 461.428 805.767 461.56C803.356 461.659 801.721 461.758 800.862 461.857L800.317 458.092C800.317 457.629 801.572 457.349 804.082 457.249C806.593 457.15 810.788 457.101 816.667 457.101H819.144C820.796 457.101 822.067 457.332 822.959 457.794C823.851 458.257 824.478 458.835 824.842 459.528C825.238 460.222 825.469 460.932 825.535 461.659C825.634 462.353 825.684 462.947 825.684 463.443V479.297H821.621L819.689 478.306C818.302 478.537 816.634 478.768 814.685 479C812.736 479.198 810.507 479.297 807.997 479.297H805.519ZM806.807 475.036H818.153C818.88 475.036 819.309 474.97 819.441 474.838C819.573 474.706 819.64 474.293 819.64 473.599V469.784H806.807C805.916 469.784 805.288 469.999 804.925 470.428C804.594 470.858 804.429 471.535 804.429 472.46C804.429 473.385 804.627 474.045 805.024 474.441C805.42 474.838 806.015 475.036 806.807 475.036ZM831.4 479.297V457.101H835.463L837.345 458.092C838.204 457.629 839.129 457.266 840.12 457.002C841.111 456.737 842.366 456.605 843.885 456.605C846.296 456.605 848.245 456.87 849.731 457.398C851.251 457.927 852.258 458.323 852.754 458.587L851.02 462.898C850.623 462.699 849.963 462.452 849.038 462.154C848.146 461.824 847.089 461.527 845.867 461.263C844.645 460.998 843.307 460.866 841.854 460.866H841.309C839.723 460.866 838.683 461.18 838.188 461.808C837.725 462.435 837.477 463.476 837.444 464.929V479.297H831.4ZM858.302 489.008C856.716 489.008 855.263 488.826 853.942 488.463C852.62 488.099 851.729 487.769 851.266 487.472L852.753 483.013C853.314 483.244 854.107 483.508 855.131 483.805C856.188 484.136 857.377 484.301 858.698 484.301H859.243C860.762 484.301 862.1 483.838 863.256 482.914C864.445 482.022 865.353 480.816 865.981 479.297H863.504L853.793 457.101H860.729L866.427 470.775L867.715 474.342H868.21L869.499 470.775L875.295 457.101H882.033L881.241 460.123C880.613 461.411 879.887 462.898 879.061 464.582C878.268 466.234 877.442 467.951 876.584 469.735C875.725 471.518 874.883 473.236 874.057 474.887C873.264 476.539 872.554 478.009 871.926 479.297C870.968 481.279 869.912 482.996 868.755 484.45C867.632 485.903 866.328 487.026 864.841 487.819C863.388 488.611 861.654 489.008 859.639 489.008H858.302ZM897.37 479.297V450.165H903.91V462.253H923.331V450.165H929.871V479.297H923.331V467.01H903.91V479.297H897.37ZM943.219 479.297C940.709 479.297 938.892 478.719 937.769 477.563C936.646 476.374 936.085 474.755 936.085 472.707C936.085 470.56 936.663 468.909 937.819 467.753C939.008 466.597 940.808 466.019 943.219 466.019H945.746C948.223 466.019 950.453 466.085 952.434 466.217C954.416 466.349 956.051 466.481 957.339 466.613V463.343C957.339 463.046 957.306 462.749 957.24 462.452C957.174 462.121 956.976 461.857 956.646 461.659C956.315 461.461 955.754 461.362 954.961 461.362H952.484C948.884 461.362 945.878 461.428 943.467 461.56C941.056 461.659 939.421 461.758 938.562 461.857L938.017 458.092C938.017 457.629 939.272 457.349 941.782 457.249C944.292 457.15 948.487 457.101 954.367 457.101H956.844C958.495 457.101 959.767 457.332 960.659 457.794C961.551 458.257 962.178 458.835 962.541 459.528C962.938 460.222 963.169 460.932 963.235 461.659C963.334 462.353 963.384 462.947 963.384 463.443V479.297H959.321L957.389 478.306C956.002 478.537 954.334 478.768 952.385 479C950.436 479.198 948.207 479.297 945.696 479.297H943.219ZM944.507 475.036H955.853C956.58 475.036 957.009 474.97 957.141 474.838C957.273 474.706 957.339 474.293 957.339 473.599V469.784H944.507C943.615 469.784 942.988 469.999 942.624 470.428C942.294 470.858 942.129 471.535 942.129 472.46C942.129 473.385 942.327 474.045 942.724 474.441C943.12 474.838 943.714 475.036 944.507 475.036ZM975.144 479.297C973.493 479.297 972.221 479.082 971.329 478.653C970.437 478.223 969.793 477.678 969.397 477.018C969.034 476.357 968.802 475.664 968.703 474.937C968.637 474.21 968.604 473.55 968.604 472.955V463.443C968.604 462.947 968.637 462.353 968.703 461.659C968.802 460.932 969.034 460.222 969.397 459.528C969.793 458.835 970.437 458.257 971.329 457.794C972.254 457.332 973.526 457.101 975.144 457.101H982.031C986.16 457.101 989.083 457.216 990.8 457.448C992.551 457.646 993.426 457.86 993.426 458.092L992.435 461.857C991.51 461.791 990.338 461.725 988.918 461.659C987.497 461.56 985.961 461.494 984.31 461.461C982.691 461.395 981.106 461.362 979.554 461.362H977.027C975.441 461.362 974.649 462.022 974.649 463.343V473.054C974.616 474.375 975.408 475.036 977.027 475.036H979.554C981.337 475.036 983.071 475.02 984.756 474.986C986.473 474.92 988.042 474.854 989.462 474.788C990.883 474.689 992.022 474.607 992.881 474.541L994.863 477.761C994.863 478.785 991.609 479.297 985.103 479.297H975.144ZM1022.06 479.792C1020.67 479.792 1019.48 479.627 1018.49 479.297C1017.53 478.967 1016.51 478.256 1015.42 477.166C1015.32 477.067 1015.05 476.803 1014.62 476.374C1014.19 475.944 1013.72 475.465 1013.19 474.937C1012.69 474.408 1012.23 473.93 1011.8 473.5C1011.37 473.071 1011.09 472.79 1010.96 472.658C1010.13 471.832 1009.34 471.188 1008.58 470.726C1007.85 470.263 1006.94 470.032 1005.85 470.032C1005.13 470.032 1004.7 470.098 1004.57 470.23C1004.43 470.362 1004.37 470.808 1004.37 471.568V479.297H998.323V447.935H1004.37V465.771H1005.95C1006.55 465.771 1007.08 465.54 1007.54 465.078C1007.84 464.78 1008.4 464.186 1009.22 463.294C1010.05 462.402 1010.97 461.395 1012 460.272C1013.05 459.149 1014.01 458.108 1014.87 457.15H1022.15L1021.36 458.686C1020.6 459.479 1019.78 460.321 1018.88 461.213C1017.99 462.072 1017.12 462.914 1016.26 463.74C1015.43 464.533 1014.67 465.243 1013.98 465.87C1013.29 466.465 1012.76 466.861 1012.39 467.059C1013.38 467.588 1014.28 468.199 1015.07 468.892C1015.86 469.553 1016.72 470.313 1017.65 471.172C1018.57 471.997 1019.68 472.939 1020.97 473.996C1022.12 474.92 1023.19 475.465 1024.19 475.631C1025.18 475.763 1025.77 475.829 1025.97 475.829L1025.08 479.297C1024.75 479.396 1024.3 479.495 1023.74 479.594C1023.18 479.726 1022.62 479.792 1022.06 479.792ZM1035.34 479.297C1032.83 479.297 1031.01 478.719 1029.89 477.563C1028.77 476.374 1028.21 474.755 1028.21 472.707C1028.21 470.56 1028.78 468.909 1029.94 467.753C1031.13 466.597 1032.93 466.019 1035.34 466.019H1037.87C1040.35 466.019 1042.57 466.085 1044.56 466.217C1046.54 466.349 1048.17 466.481 1049.46 466.613V463.343C1049.46 463.046 1049.43 462.749 1049.36 462.452C1049.3 462.121 1049.1 461.857 1048.77 461.659C1048.44 461.461 1047.88 461.362 1047.08 461.362H1044.61C1041.01 461.362 1038 461.428 1035.59 461.56C1033.18 461.659 1031.54 461.758 1030.68 461.857L1030.14 458.092C1030.14 457.629 1031.39 457.349 1033.9 457.249C1036.41 457.15 1040.61 457.101 1046.49 457.101H1048.97C1050.62 457.101 1051.89 457.332 1052.78 457.794C1053.67 458.257 1054.3 458.835 1054.66 459.528C1055.06 460.222 1055.29 460.932 1055.36 461.659C1055.46 462.353 1055.51 462.947 1055.51 463.443V479.297H1051.44L1049.51 478.306C1048.12 478.537 1046.46 478.768 1044.51 479C1042.56 479.198 1040.33 479.297 1037.82 479.297H1035.34ZM1036.63 475.036H1047.98C1048.7 475.036 1049.13 474.97 1049.26 474.838C1049.4 474.706 1049.46 474.293 1049.46 473.599V469.784H1036.63C1035.74 469.784 1035.11 469.999 1034.75 470.428C1034.42 470.858 1034.25 471.535 1034.25 472.46C1034.25 473.385 1034.45 474.045 1034.85 474.441C1035.24 474.838 1035.84 475.036 1036.63 475.036ZM1069.84 479.297C1067.33 479.297 1065.61 478.768 1064.69 477.711C1063.77 476.654 1063.3 475.069 1063.3 472.955V461.362H1059.24V457.101H1061.32C1061.95 457.101 1062.39 457.002 1062.66 456.804C1062.96 456.605 1063.17 456.209 1063.3 455.614L1064.29 450.313H1069.35V457.101H1079.65V461.362H1069.35V473.005C1069.35 473.83 1069.55 474.375 1069.94 474.64C1070.34 474.904 1070.93 475.036 1071.73 475.036H1078.71L1079.21 478.801C1078.51 478.901 1077.46 479.016 1076.04 479.148C1074.62 479.247 1073.06 479.297 1071.38 479.297H1069.84ZM1083.62 479.297V447.192H1089.67V458.092C1091.06 457.827 1092.72 457.596 1094.67 457.398C1096.62 457.2 1098.85 457.101 1101.36 457.101H1103.84C1105.49 457.101 1106.76 457.332 1107.65 457.794C1108.54 458.257 1109.17 458.835 1109.54 459.528C1109.93 460.222 1110.16 460.932 1110.23 461.659C1110.33 462.353 1110.38 462.947 1110.38 463.443V479.297H1104.33V463.343C1104.33 462.022 1103.54 461.362 1101.96 461.362H1091.15C1090.53 461.362 1090.11 461.428 1089.92 461.56C1089.75 461.659 1089.67 461.956 1089.67 462.452V479.297H1083.62ZM1122.13 479.297C1119.92 479.297 1118.27 478.851 1117.18 477.959C1116.12 477.067 1115.59 475.614 1115.59 473.599V463.443C1115.59 462.947 1115.63 462.353 1115.69 461.659C1115.79 460.932 1116.02 460.222 1116.39 459.528C1116.78 458.835 1117.43 458.257 1118.32 457.794C1119.24 457.332 1120.51 457.101 1122.13 457.101H1135.81C1137.46 457.101 1138.73 457.332 1139.62 457.794C1140.51 458.257 1141.14 458.835 1141.51 459.528C1141.9 460.222 1142.13 460.932 1142.2 461.659C1142.3 462.353 1142.35 462.947 1142.35 463.443V472.955C1142.35 473.55 1142.3 474.21 1142.2 474.937C1142.13 475.664 1141.9 476.357 1141.51 477.018C1141.11 477.678 1140.47 478.223 1139.57 478.653C1138.68 479.082 1137.43 479.297 1135.81 479.297H1122.13ZM1124.02 475.036H1133.93C1135.54 475.036 1136.35 474.375 1136.35 473.054V463.343C1136.35 462.022 1135.54 461.362 1133.93 461.362H1124.02C1122.43 461.362 1121.64 462.022 1121.64 463.343V473.054C1121.64 474.375 1122.43 475.036 1124.02 475.036ZM1147.78 479.297V457.101H1151.84L1153.82 458.092C1155.21 457.827 1156.88 457.596 1158.83 457.398C1160.78 457.2 1163.01 457.101 1165.52 457.101H1167.99C1169.65 457.101 1170.92 457.332 1171.81 457.794C1172.7 458.257 1173.33 458.835 1173.69 459.528C1174.09 460.222 1174.32 460.932 1174.39 461.659C1174.48 462.353 1174.53 462.947 1174.53 463.443V479.297H1168.49V463.343C1168.49 462.022 1167.7 461.362 1166.11 461.362H1155.31C1154.68 461.362 1154.27 461.428 1154.07 461.56C1153.91 461.659 1153.82 461.956 1153.82 462.452V479.297H1147.78Z" fill="white"/>
<path d="M762.784 527.863C760.472 527.863 758.655 527.533 757.334 526.872C756.013 526.212 755.071 525.221 754.51 523.9C753.981 522.579 753.717 520.944 753.717 518.995V507.55C753.717 505.634 753.981 504.032 754.51 502.744C755.038 501.423 755.963 500.432 757.284 499.771C758.606 499.078 760.439 498.731 762.784 498.731H777.251C779.563 498.731 781.363 499.078 782.651 499.771C783.973 500.432 784.897 501.423 785.426 502.744C785.987 504.032 786.268 505.634 786.268 507.55V518.995C786.268 521.901 785.624 524.114 784.336 525.634C783.048 527.12 780.686 527.863 777.251 527.863H762.784ZM764.221 523.107H775.864C777.086 523.107 778.027 522.793 778.688 522.166C779.381 521.538 779.728 520.679 779.728 519.589V506.955C779.728 505.998 779.381 505.188 778.688 504.528C777.994 503.834 777.053 503.487 775.864 503.487H764.221C763.032 503.487 762.074 503.801 761.347 504.429C760.62 505.056 760.257 505.898 760.257 506.955V519.589C760.257 520.712 760.604 521.588 761.298 522.215C762.024 522.81 762.999 523.107 764.221 523.107ZM793.793 527.863V509.928H790.721V505.717H793.793V501.307C793.793 500.184 794.007 499.144 794.437 498.186C794.899 497.228 795.642 496.452 796.666 495.857C797.723 495.263 799.111 494.966 800.828 494.966H803.305C807.269 494.966 810.109 495.147 811.827 495.511C813.578 495.874 814.453 496.188 814.453 496.452L812.967 500.217C812.405 499.986 811.398 499.771 809.944 499.573C808.491 499.342 806.74 499.226 804.693 499.226H802.215C801.39 499.226 800.779 499.375 800.382 499.672C800.019 499.97 799.837 500.482 799.837 501.208V505.717H810.142V509.928H799.837V527.863H793.793ZM833.837 527.863C831.591 527.863 829.939 527.764 828.882 527.566C827.825 527.368 827.297 527.137 827.297 526.872L829.279 522.562C830.038 522.694 831.921 522.826 834.927 522.958C837.966 523.057 842.127 523.107 847.412 523.107H848.354C849.774 523.107 850.781 522.859 851.376 522.364C851.97 521.835 852.268 520.96 852.268 519.738V518.747C852.268 517.591 852.02 516.765 851.524 516.27C851.062 515.774 850.005 515.527 848.354 515.527H836.859C833.523 515.527 831.095 514.916 829.576 513.693C828.057 512.438 827.297 510.407 827.297 507.599V506.807C827.297 505.353 827.561 504.016 828.09 502.794C828.651 501.572 829.593 500.597 830.914 499.87C832.235 499.111 834.052 498.731 836.364 498.731H849.84C852.086 498.731 853.903 498.847 855.29 499.078C856.677 499.309 857.371 499.557 857.371 499.821L856.38 503.983C855.521 503.884 853.572 503.785 850.534 503.685C847.495 503.553 843.416 503.487 838.296 503.487L837.751 503.438C836.232 503.438 835.208 503.751 834.679 504.379C834.151 504.974 833.87 505.733 833.837 506.658V507.5C833.837 508.59 834.134 509.416 834.729 509.978C835.356 510.506 836.38 510.77 837.8 510.77H848.799C850.913 510.77 852.713 510.985 854.2 511.414C855.686 511.844 856.826 512.637 857.618 513.793C858.411 514.916 858.807 516.584 858.807 518.797V519.589C858.807 522.067 858.163 524.065 856.875 525.584C855.62 527.104 853.424 527.863 850.286 527.863H833.837ZM868.264 502.546C867.041 502.546 866.15 502.298 865.588 501.803C865.027 501.307 864.746 500.482 864.746 499.325C864.746 498.136 865.01 497.311 865.539 496.848C866.1 496.353 867.008 496.105 868.264 496.105C869.519 496.105 870.427 496.353 870.989 496.848C871.55 497.311 871.831 498.136 871.831 499.325C871.831 500.448 871.55 501.274 870.989 501.803C870.427 502.298 869.519 502.546 868.264 502.546ZM865.241 527.863V505.667H871.286V527.863H865.241ZM878.257 527.863V500.415L877.761 496.452H884.301V527.863H878.257ZM897.973 527.863L887.767 505.667H894.703L900.401 519.342L901.689 522.909H902.184L903.473 519.342L909.269 505.667H916.007L915.215 508.689L905.9 527.863H897.973ZM925.512 527.863C923.861 527.863 922.589 527.649 921.697 527.219C920.805 526.79 920.161 526.245 919.765 525.584C919.402 524.924 919.17 524.23 919.071 523.503C919.005 522.777 918.972 522.116 918.972 521.522V512.009C918.972 511.513 919.005 510.919 919.071 510.225C919.17 509.499 919.402 508.789 919.765 508.095C920.161 507.401 920.805 506.823 921.697 506.361C922.622 505.898 923.894 505.667 925.512 505.667H936.164C938.344 505.667 940.045 505.882 941.267 506.311C942.523 506.708 943.398 507.368 943.893 508.293C944.422 509.218 944.686 510.457 944.686 512.009V519.342H936.016C933.043 519.342 930.615 519.276 928.733 519.143C926.883 519.011 925.644 518.929 925.017 518.896V521.621C924.984 522.942 925.776 523.602 927.395 523.602H929.922C931.705 523.602 933.439 523.586 935.124 523.553C936.841 523.487 938.41 523.421 939.831 523.355C941.251 523.256 942.39 523.173 943.249 523.107L945.231 526.327C945.231 527.351 941.978 527.863 935.471 527.863H925.512ZM925.017 515.081H938.642V511.91C938.642 511.249 938.559 510.787 938.394 510.523C938.262 510.258 937.832 510.093 937.106 510.027C936.379 509.961 935.14 509.928 933.39 509.928H927.395C925.809 509.928 925.017 510.589 925.017 511.91V515.081ZM950.191 527.863V505.667H954.254L956.137 506.658C956.995 506.196 957.92 505.832 958.911 505.568C959.902 505.304 961.157 505.172 962.677 505.172C965.088 505.172 967.037 505.436 968.523 505.964C970.042 506.493 971.05 506.889 971.545 507.154L969.811 511.464C969.415 511.266 968.754 511.018 967.829 510.721C966.937 510.39 965.881 510.093 964.658 509.829C963.436 509.565 962.099 509.433 960.645 509.433H960.1C958.515 509.433 957.474 509.746 956.979 510.374C956.517 511.002 956.269 512.042 956.236 513.495V527.863H950.191ZM995.461 527.863C993.148 527.863 991.332 527.533 990.011 526.872C988.689 526.212 987.748 525.221 987.187 523.9C986.658 522.579 986.394 520.944 986.394 518.995V507.55C986.394 505.634 986.658 504.032 987.187 502.744C987.715 501.423 988.64 500.432 989.961 499.771C991.282 499.078 993.115 498.731 995.461 498.731H1009.93C1012.24 498.731 1014.04 499.078 1015.33 499.771C1016.65 500.432 1017.57 501.423 1018.1 502.744C1018.66 504.032 1018.94 505.634 1018.94 507.55V518.995C1018.94 521.901 1018.3 524.114 1017.01 525.634C1015.72 527.12 1013.36 527.863 1009.93 527.863H995.461ZM996.897 523.107H1008.54C1009.76 523.107 1010.7 522.793 1011.36 522.166C1012.06 521.538 1012.4 520.679 1012.4 519.589V506.955C1012.4 505.998 1012.06 505.188 1011.36 504.528C1010.67 503.834 1009.73 503.487 1008.54 503.487H996.897C995.708 503.487 994.75 503.801 994.024 504.429C993.297 505.056 992.934 505.898 992.934 506.955V519.589C992.934 520.712 993.281 521.588 993.974 522.215C994.701 522.81 995.675 523.107 996.897 523.107ZM1031.77 527.863C1029.26 527.863 1027.44 527.285 1026.32 526.129C1025.2 524.94 1024.64 523.322 1024.64 521.274C1024.64 519.127 1025.21 517.475 1026.37 516.319C1027.56 515.163 1029.36 514.585 1031.77 514.585H1034.3C1036.77 514.585 1039 514.651 1040.99 514.783C1042.97 514.916 1044.6 515.048 1045.89 515.18V511.91C1045.89 511.613 1045.86 511.315 1045.79 511.018C1045.73 510.688 1045.53 510.424 1045.2 510.225C1044.87 510.027 1044.31 509.928 1043.51 509.928H1041.04C1037.44 509.928 1034.43 509.994 1032.02 510.126C1029.61 510.225 1027.97 510.324 1027.11 510.424L1026.57 506.658C1026.57 506.196 1027.82 505.915 1030.33 505.816C1032.84 505.717 1037.04 505.667 1042.92 505.667H1045.4C1047.05 505.667 1048.32 505.898 1049.21 506.361C1050.1 506.823 1050.73 507.401 1051.09 508.095C1051.49 508.789 1051.72 509.499 1051.79 510.225C1051.89 510.919 1051.94 511.513 1051.94 512.009V527.863H1047.87L1045.94 526.872C1044.55 527.104 1042.89 527.335 1040.94 527.566C1038.99 527.764 1036.76 527.863 1034.25 527.863H1031.77ZM1033.06 523.602H1044.4C1045.13 523.602 1045.56 523.536 1045.69 523.404C1045.82 523.272 1045.89 522.859 1045.89 522.166V518.351H1033.06C1032.17 518.351 1031.54 518.565 1031.18 518.995C1030.85 519.424 1030.68 520.101 1030.68 521.026C1030.68 521.951 1030.88 522.612 1031.28 523.008C1031.67 523.404 1032.27 523.602 1033.06 523.602ZM1081.38 528.359C1080 528.359 1078.81 528.194 1077.82 527.863C1076.86 527.533 1075.83 526.823 1074.74 525.733C1074.65 525.634 1074.38 525.37 1073.95 524.94C1073.52 524.511 1073.04 524.032 1072.51 523.503C1072.02 522.975 1071.56 522.496 1071.13 522.067C1070.7 521.637 1070.42 521.356 1070.29 521.224C1069.46 520.399 1068.67 519.754 1067.91 519.292C1067.18 518.83 1066.27 518.598 1065.18 518.598C1064.46 518.598 1064.03 518.664 1063.89 518.797C1063.76 518.929 1063.7 519.375 1063.7 520.134V527.863H1057.65V496.501H1063.7V514.338H1065.28C1065.88 514.338 1066.4 514.106 1066.87 513.644C1067.16 513.347 1067.73 512.752 1068.55 511.86C1069.38 510.969 1070.3 509.961 1071.33 508.838C1072.38 507.715 1073.34 506.675 1074.2 505.717H1081.48L1080.69 507.253C1079.93 508.045 1079.1 508.888 1078.21 509.779C1077.32 510.638 1076.45 511.48 1075.59 512.306C1074.76 513.099 1074 513.809 1073.31 514.437C1072.61 515.031 1072.09 515.428 1071.72 515.626C1072.71 516.154 1073.6 516.765 1074.4 517.459C1075.19 518.119 1076.05 518.879 1076.97 519.738C1077.9 520.564 1079.01 521.505 1080.29 522.562C1081.45 523.487 1082.52 524.032 1083.51 524.197C1084.5 524.329 1085.1 524.395 1085.3 524.395L1084.41 527.863C1084.08 527.962 1083.63 528.061 1083.07 528.161C1082.51 528.293 1081.94 528.359 1081.38 528.359ZM1107.49 528.359C1104.48 528.359 1102.38 527.549 1101.2 525.931C1100.01 524.313 1099.41 522.166 1099.41 519.49V498.731H1105.95V519.688C1105.95 521.241 1106.33 522.281 1107.09 522.81C1107.85 523.338 1108.79 523.602 1109.92 523.602H1120.42C1121.48 523.602 1122.4 523.338 1123.19 522.81C1123.99 522.248 1124.38 521.208 1124.38 519.688V498.731H1130.92V519.49C1130.92 521.274 1130.67 522.826 1130.18 524.147C1129.68 525.469 1128.86 526.509 1127.7 527.269C1126.55 527.995 1124.94 528.359 1122.9 528.359H1107.49ZM1137.1 527.863V505.667H1141.16L1143.14 506.658C1144.53 506.394 1146.2 506.163 1148.15 505.964C1150.09 505.766 1152.32 505.667 1154.83 505.667H1157.31C1158.96 505.667 1160.23 505.898 1161.13 506.361C1162.02 506.823 1162.65 507.401 1163.01 508.095C1163.41 508.789 1163.64 509.499 1163.7 510.225C1163.8 510.919 1163.85 511.513 1163.85 512.009V527.863H1157.81V511.91C1157.81 510.589 1157.01 509.928 1155.43 509.928H1144.63C1144 509.928 1143.59 509.994 1143.39 510.126C1143.22 510.225 1143.14 510.523 1143.14 511.018V527.863H1137.1ZM1173.08 502.546C1171.86 502.546 1170.97 502.298 1170.4 501.803C1169.84 501.307 1169.56 500.482 1169.56 499.325C1169.56 498.136 1169.83 497.311 1170.36 496.848C1170.92 496.353 1171.83 496.105 1173.08 496.105C1174.34 496.105 1175.24 496.353 1175.81 496.848C1176.37 497.311 1176.65 498.136 1176.65 499.325C1176.65 500.448 1176.37 501.274 1175.81 501.803C1175.24 502.298 1174.34 502.546 1173.08 502.546ZM1170.06 527.863V505.667H1176.1V527.863H1170.06ZM1190.31 527.863L1180.1 505.667H1187.04L1192.73 519.342L1194.02 522.909H1194.52L1195.81 519.342L1201.6 505.667H1208.34L1207.55 508.689L1198.23 527.863H1190.31ZM1217.85 527.863C1216.19 527.863 1214.92 527.649 1214.03 527.219C1213.14 526.79 1212.5 526.245 1212.1 525.584C1211.74 524.924 1211.5 524.23 1211.41 523.503C1211.34 522.777 1211.31 522.116 1211.31 521.522V512.009C1211.31 511.513 1211.34 510.919 1211.41 510.225C1211.5 509.499 1211.74 508.789 1212.1 508.095C1212.5 507.401 1213.14 506.823 1214.03 506.361C1214.96 505.898 1216.23 505.667 1217.85 505.667H1228.5C1230.68 505.667 1232.38 505.882 1233.6 506.311C1234.86 506.708 1235.73 507.368 1236.23 508.293C1236.76 509.218 1237.02 510.457 1237.02 512.009V519.342H1228.35C1225.38 519.342 1222.95 519.276 1221.07 519.143C1219.22 519.011 1217.98 518.929 1217.35 518.896V521.621C1217.32 522.942 1218.11 523.602 1219.73 523.602H1222.26C1224.04 523.602 1225.77 523.586 1227.46 523.553C1229.18 523.487 1230.74 523.421 1232.16 523.355C1233.58 523.256 1234.72 523.173 1235.58 523.107L1237.56 526.327C1237.56 527.351 1234.31 527.863 1227.8 527.863H1217.85ZM1217.35 515.081H1230.98V511.91C1230.98 511.249 1230.89 510.787 1230.73 510.523C1230.6 510.258 1230.17 510.093 1229.44 510.027C1228.71 509.961 1227.47 509.928 1225.72 509.928H1219.73C1218.14 509.928 1217.35 510.589 1217.35 511.91V515.081ZM1242.53 527.863V505.667H1246.59L1248.47 506.658C1249.33 506.196 1250.25 505.832 1251.24 505.568C1252.24 505.304 1253.49 505.172 1255.01 505.172C1257.42 505.172 1259.37 505.436 1260.86 505.964C1262.38 506.493 1263.38 506.889 1263.88 507.154L1262.14 511.464C1261.75 511.266 1261.09 511.018 1260.16 510.721C1259.27 510.39 1258.21 510.093 1256.99 509.829C1255.77 509.565 1254.43 509.433 1252.98 509.433H1252.43C1250.85 509.433 1249.81 509.746 1249.31 510.374C1248.85 511.002 1248.6 512.042 1248.57 513.495V527.863H1242.53ZM1272.94 527.863C1270.73 527.863 1269.16 527.748 1268.24 527.516C1267.31 527.285 1266.85 527.054 1266.85 526.823L1268.34 523.107C1269.29 523.206 1271.05 523.322 1273.59 523.454C1276.16 523.553 1279.34 523.602 1283.1 523.602H1285.58C1286.4 523.602 1286.92 523.388 1287.11 522.958C1287.35 522.496 1287.46 521.885 1287.46 521.125C1287.46 520.366 1287.33 519.754 1287.06 519.292C1286.83 518.83 1286.34 518.598 1285.58 518.598H1273.39C1271.08 518.598 1269.41 518.169 1268.39 517.31C1267.36 516.418 1266.85 515.097 1266.85 513.347V511.365C1266.85 510.902 1266.9 510.357 1267 509.73C1267.1 509.102 1267.35 508.475 1267.74 507.847C1268.14 507.22 1268.78 506.708 1269.67 506.311C1270.57 505.882 1271.8 505.667 1273.39 505.667H1287.06C1289.05 505.667 1290.45 505.783 1291.28 506.014C1292.1 506.245 1292.51 506.476 1292.51 506.708L1292.02 510.424C1291.06 510.324 1289.29 510.225 1286.72 510.126C1284.14 509.994 1280.99 509.928 1277.25 509.928H1274.78C1273.95 509.928 1273.42 510.159 1273.19 510.622C1272.99 511.051 1272.89 511.563 1272.89 512.158C1272.89 512.785 1272.99 513.314 1273.19 513.743C1273.42 514.139 1273.95 514.338 1274.78 514.338H1286.97C1289.21 514.338 1290.86 514.8 1291.92 515.725C1292.98 516.65 1293.51 517.822 1293.51 519.242V522.166C1293.51 522.76 1293.46 523.388 1293.36 524.048C1293.29 524.709 1293.06 525.336 1292.66 525.931C1292.27 526.493 1291.62 526.955 1290.73 527.318C1289.84 527.682 1288.58 527.863 1286.97 527.863H1272.94ZM1302.46 502.546C1301.24 502.546 1300.34 502.298 1299.78 501.803C1299.22 501.307 1298.94 500.482 1298.94 499.325C1298.94 498.136 1299.2 497.311 1299.73 496.848C1300.29 496.353 1301.2 496.105 1302.46 496.105C1303.71 496.105 1304.62 496.353 1305.18 496.848C1305.74 497.311 1306.03 498.136 1306.03 499.325C1306.03 500.448 1305.74 501.274 1305.18 501.803C1304.62 502.298 1303.71 502.546 1302.46 502.546ZM1299.44 527.863V505.667H1305.48V527.863H1299.44ZM1320.58 527.863C1318.07 527.863 1316.35 527.335 1315.42 526.278C1314.5 525.221 1314.04 523.635 1314.04 521.522V509.928H1309.97V505.667H1312.05C1312.68 505.667 1313.13 505.568 1313.39 505.37C1313.69 505.172 1313.9 504.775 1314.04 504.181L1315.03 498.88H1320.08V505.667H1330.39V509.928H1320.08V521.571C1320.08 522.397 1320.28 522.942 1320.68 523.206C1321.07 523.47 1321.67 523.602 1322.46 523.602H1329.44L1329.94 527.368C1329.25 527.467 1328.19 527.583 1326.77 527.715C1325.35 527.814 1323.8 527.863 1322.11 527.863H1320.58ZM1336.44 537.574C1334.85 537.574 1333.4 537.392 1332.08 537.029C1330.76 536.666 1329.87 536.335 1329.4 536.038L1330.89 531.579C1331.45 531.81 1332.24 532.075 1333.27 532.372C1334.32 532.702 1335.51 532.867 1336.83 532.867H1337.38C1338.9 532.867 1340.24 532.405 1341.39 531.48C1342.58 530.588 1343.49 529.383 1344.12 527.863H1341.64L1331.93 505.667H1338.87L1344.56 519.342L1345.85 522.909H1346.35L1347.64 519.342L1353.43 505.667H1360.17L1359.38 508.689C1358.75 509.978 1358.02 511.464 1357.2 513.148C1356.4 514.8 1355.58 516.518 1354.72 518.301C1353.86 520.085 1353.02 521.802 1352.19 523.454C1351.4 525.105 1350.69 526.575 1350.06 527.863C1349.1 529.845 1348.05 531.563 1346.89 533.016C1345.77 534.469 1344.46 535.592 1342.98 536.385C1341.52 537.178 1339.79 537.574 1337.78 537.574H1336.44Z" fill="white"/>
</svg>
